<svg width="482" height="482" viewBox="0 0 482 482" fill="none" xmlns="http://www.w3.org/2000/svg">
<path d="M240.062 0.00359834C241.226 0.00624193 241.226 0.00624193 242.414 0.00893892C282.635 0.211049 318.756 15.7012 347.562 43.5036C348.415 44.2925 349.267 45.0814 350.144 45.8942C367.552 62.4516 381.451 86.2713 387.562 109.504C387.562 110.494 387.562 111.484 387.562 112.504C388.272 112.483 388.981 112.462 389.711 112.44C413.595 111.828 435.245 114.757 453.562 131.504C454.454 132.304 455.347 133.105 456.266 133.929C466.289 143.391 473.056 154.463 477.562 167.504C478.042 168.888 478.042 168.888 478.531 170.3C484.548 191.358 480.919 213.994 470.625 232.949C468.02 237.537 465.125 241.607 461.562 245.504C460.762 246.396 459.961 247.288 459.137 248.207C446.469 261.626 428.782 271.332 410.135 272.767C406.435 272.848 402.747 272.842 399.047 272.797C397.696 272.791 396.346 272.787 394.995 272.784C391.484 272.772 387.973 272.743 384.461 272.71C380.861 272.679 377.26 272.665 373.66 272.65C366.627 272.618 359.595 272.567 352.562 272.504C352.583 273.401 352.604 274.298 352.626 275.222C352.695 278.585 352.744 281.946 352.782 285.309C352.802 286.758 352.829 288.207 352.864 289.655C353.085 299.063 353.141 306.279 346.598 313.746C340.184 319.054 337.251 320.504 328.562 320.504C328.562 331.064 328.562 341.624 328.562 352.504C357.932 352.504 387.302 352.504 417.562 352.504C417.892 350.524 418.222 348.544 418.562 346.504C422.442 338.448 428.346 333.762 436.062 329.629C444.815 326.74 456.2 327.286 464.453 331.246C472.798 336.222 477.987 343.109 480.562 352.504C481.561 363.603 480.912 373.238 473.812 382.316C468.155 388.374 461.108 392.095 452.828 392.84C442.22 393.078 433.261 391.883 425.168 384.347C421.071 379.642 417.562 374.831 417.562 368.504C416.306 368.512 415.05 368.521 413.755 368.531C401.925 368.612 390.094 368.672 378.263 368.711C372.181 368.732 366.098 368.76 360.016 368.805C354.148 368.849 348.28 368.873 342.412 368.883C340.172 368.891 337.931 368.905 335.69 368.927C332.556 368.955 329.422 368.96 326.288 368.958C325.358 368.972 324.428 368.986 323.47 369.001C317.238 368.961 317.238 368.961 313.983 366.756C312.393 364.236 312.074 362.965 312.108 360.01C312.109 358.69 312.109 358.69 312.109 357.342C312.13 356.4 312.151 355.458 312.172 354.488C312.177 353.517 312.183 352.546 312.189 351.546C312.211 348.448 312.262 345.351 312.312 342.254C312.333 340.152 312.351 338.05 312.367 335.949C312.411 330.8 312.48 325.652 312.562 320.504C307.282 320.504 302.002 320.504 296.562 320.504C296.562 341.624 296.562 362.744 296.562 384.504C303.856 384.434 303.856 384.434 311.297 384.363C314.378 384.343 317.458 384.323 320.539 384.308C325.429 384.284 330.318 384.256 335.208 384.202C339.15 384.158 343.092 384.134 347.035 384.124C348.538 384.117 350.042 384.102 351.546 384.081C353.653 384.052 355.759 384.048 357.866 384.049C359.065 384.041 360.264 384.032 361.5 384.023C365.186 384.601 366.36 385.54 368.562 388.504C369.017 391.62 369.017 391.62 368.953 395.238C368.94 396.533 368.927 397.829 368.914 399.164C368.881 400.527 368.847 401.89 368.812 403.254C368.792 404.632 368.774 406.011 368.758 407.39C368.711 410.762 368.645 414.133 368.562 417.504C369.504 417.645 370.446 417.787 371.416 417.933C377.862 419.102 382.928 423.322 386.937 428.379C393.008 437.383 393.499 445.95 392.562 456.504C390.593 465.081 385.873 471.517 378.562 476.316C369.955 481.57 359.24 482.024 349.543 479.816C340.774 476.583 334.668 470.869 330.562 462.504C327.215 454.188 327.067 443.405 330.187 434.941C334.192 426.64 340.137 421.299 348.562 417.504C349.882 417.504 351.202 417.504 352.562 417.504C352.562 411.894 352.562 406.284 352.562 400.504C350.523 400.525 348.484 400.545 346.384 400.567C339.646 400.633 332.909 400.678 326.171 400.711C322.086 400.732 318.002 400.76 313.917 400.805C309.975 400.849 306.033 400.873 302.09 400.883C300.586 400.891 299.082 400.905 297.579 400.927C295.472 400.956 293.366 400.96 291.259 400.958C290.06 400.967 288.86 400.975 287.625 400.985C284.562 400.504 284.562 400.504 282.172 398.94C280.012 395.671 280.03 392.861 280.108 389.073C280.108 388.331 280.107 387.589 280.107 386.825C280.109 384.379 280.14 381.934 280.172 379.488C280.179 377.79 280.185 376.092 280.189 374.393C280.204 369.928 280.244 365.463 280.288 360.998C280.329 356.44 280.347 351.882 280.367 347.324C280.41 338.384 280.48 329.444 280.562 320.504C270.002 320.504 259.442 320.504 248.562 320.504C248.562 347.234 248.562 373.964 248.562 401.504C250.542 401.834 252.522 402.164 254.562 402.504C262.618 406.384 267.304 412.287 271.437 420.004C274.326 428.756 273.781 440.141 269.82 448.394C264.844 456.739 257.957 461.928 248.562 464.504C237.463 465.502 227.828 464.853 218.75 457.754C212.692 452.096 208.971 445.049 208.226 436.769C207.988 426.161 209.183 417.202 216.719 409.109C221.424 405.012 226.235 401.504 232.562 401.504C232.562 374.774 232.562 348.044 232.562 320.504C222.002 320.504 211.442 320.504 200.562 320.504C200.583 322.785 200.604 325.066 200.626 327.417C200.692 334.952 200.736 342.488 200.77 350.024C200.791 354.593 200.819 359.162 200.864 363.731C200.908 368.14 200.932 372.549 200.942 376.958C200.949 378.641 200.964 380.323 200.985 382.006C201.014 384.362 201.018 386.717 201.017 389.073C201.031 389.769 201.045 390.465 201.06 391.183C201.033 394.368 200.722 396.262 198.953 398.94C195.763 401.026 193.667 400.986 189.866 400.958C189.202 400.958 188.538 400.959 187.855 400.959C185.668 400.957 183.483 400.926 181.297 400.894C179.778 400.887 178.259 400.881 176.74 400.877C172.748 400.862 168.757 400.823 164.766 400.778C160.69 400.737 156.615 400.719 152.539 400.699C144.547 400.656 136.555 400.586 128.562 400.504C128.562 406.114 128.562 411.724 128.562 417.504C130.542 417.834 132.522 418.164 134.562 418.504C142.618 422.384 147.304 428.287 151.437 436.004C154.326 444.756 153.78 456.141 149.82 464.394C144.844 472.739 137.957 477.928 128.562 480.504C117.463 481.502 107.828 480.853 98.7499 473.754C92.6922 468.096 88.9714 461.049 88.2265 452.769C87.9878 442.161 89.1832 433.202 96.7187 425.109C101.424 421.012 106.235 417.504 112.562 417.504C112.531 416.217 112.531 416.217 112.499 414.905C112.431 411.714 112.381 408.524 112.343 405.333C112.323 403.954 112.295 402.575 112.261 401.195C112.212 399.21 112.192 397.224 112.172 395.238C112.151 394.044 112.13 392.85 112.108 391.62C112.67 387.766 113.502 386.851 116.562 384.504C119.625 384.023 119.625 384.023 123.259 384.049C123.923 384.049 124.586 384.048 125.27 384.048C127.457 384.051 129.642 384.082 131.828 384.113C133.347 384.12 134.866 384.126 136.385 384.13C140.376 384.145 144.368 384.185 148.359 384.229C153.152 384.277 157.944 384.295 162.737 384.319C170.012 384.358 177.287 384.434 184.562 384.504C184.562 363.384 184.562 342.264 184.562 320.504C179.282 320.504 174.002 320.504 168.562 320.504C168.583 321.816 168.604 323.127 168.626 324.479C168.698 329.347 168.744 334.215 168.782 339.083C168.802 341.19 168.83 343.296 168.864 345.403C168.913 348.431 168.935 351.459 168.953 354.488C168.974 355.43 168.994 356.372 169.016 357.342C169.016 358.223 169.016 359.103 169.017 360.01C169.025 360.783 169.034 361.556 169.043 362.352C168.314 365.613 167.341 366.621 164.562 368.504C161.32 369.079 158.122 369.009 154.837 368.958C153.851 368.958 152.865 368.959 151.85 368.959C148.592 368.957 145.336 368.926 142.078 368.894C139.819 368.887 137.561 368.881 135.302 368.877C129.357 368.862 123.413 368.823 117.468 368.778C111.402 368.737 105.336 368.719 99.2695 368.699C87.3669 368.656 75.4647 368.588 63.5624 368.504C63.4207 369.445 63.279 370.387 63.133 371.357C61.9641 377.803 57.7439 382.869 52.6874 386.879C43.6828 392.949 35.1163 393.44 24.5624 392.504C15.9849 390.534 9.54935 385.814 4.74993 378.504C-0.504287 369.896 -0.957902 359.181 1.24993 349.484C4.48277 340.715 10.1965 334.61 18.5624 330.504C26.878 327.156 37.6614 327.008 46.1249 330.129C54.4258 334.133 59.7669 340.078 63.5624 348.504C63.5624 349.824 63.5624 351.144 63.5624 352.504C92.9324 352.504 122.302 352.504 152.562 352.504C152.562 341.944 152.562 331.384 152.562 320.504C150.252 320.504 147.942 320.504 145.562 320.504C138.976 318.716 134.35 314 130.562 308.504C128.491 304.322 128.329 300.872 128.367 296.234C128.37 295.553 128.373 294.872 128.376 294.17C128.387 292.01 128.412 289.851 128.437 287.691C128.447 286.22 128.457 284.75 128.465 283.279C128.487 279.687 128.521 276.095 128.562 272.504C127.258 272.525 125.954 272.545 124.61 272.567C119.687 272.64 114.765 272.686 109.843 272.723C107.728 272.743 105.613 272.77 103.498 272.805C75.1853 273.262 51.0731 266.66 29.9335 246.84C11.467 228.647 0.737757 206.146 0.0895254 180.185C-0.119737 151.759 8.32371 128.047 28.5624 107.504C45.6277 90.4098 68.1957 80.4229 92.311 80.2355C97.0637 80.2614 101.812 80.3476 106.562 80.5036C106.889 79.27 106.889 79.27 107.223 78.0114C108.899 73.6234 111.271 70.176 114 66.3786C114.533 65.6309 115.067 64.8831 115.617 64.1127C120.478 57.4153 125.782 51.4214 131.562 45.5036C132.349 44.6554 133.135 43.8072 133.945 42.9333C150.391 25.6187 172.737 13.2212 195.437 6.2536C196.19 6.01947 196.943 5.78535 197.719 5.54413C211.688 1.47008 225.569 -0.0854403 240.062 0.00359834ZM146.562 54.5036C145.804 55.1907 145.046 55.8777 144.266 56.5856C134.426 65.9332 127.338 77.132 120.691 88.8513C116.432 96.2577 116.432 96.2577 112.687 97.3161C109.277 97.6436 106.026 97.2867 102.625 96.9411C81.5814 95.1049 60.7198 102.401 44.6249 115.879C30.1252 128.558 18.7556 147.431 17.3854 167.036C16.8696 189.581 20.4306 209.883 35.5624 227.504C36.0587 228.142 36.555 228.78 37.0663 229.437C49.7833 245.157 69.5814 253.921 89.3398 256.066C97.2977 256.751 105.27 256.61 113.25 256.566C114.838 256.561 116.426 256.557 118.014 256.552C121.863 256.542 125.713 256.524 129.562 256.504C130.235 255.403 130.908 254.302 131.601 253.168C131.98 252.548 132.358 251.929 132.748 251.291C133.825 249.413 133.825 249.413 132.937 246.879C132.484 246.095 132.03 245.311 131.562 244.504C128.955 239.591 129.239 234.657 129.226 229.234C129.217 227.742 129.217 227.742 129.206 226.219C129.196 224.117 129.191 222.015 129.192 219.913C129.187 216.713 129.151 213.514 129.113 210.314C129.107 208.267 129.103 206.219 129.101 204.172C129.087 203.222 129.073 202.273 129.058 201.295C129.101 194.899 130.482 191.086 133.562 185.504C133.071 182.775 133.071 182.775 131.562 180.504C128.952 175.595 129.239 170.655 129.226 165.234C129.217 163.742 129.217 163.742 129.206 162.219C129.196 160.117 129.191 158.015 129.192 155.913C129.187 152.713 129.151 149.514 129.113 146.314C129.107 144.267 129.103 142.219 129.101 140.172C129.087 139.222 129.073 138.273 129.058 137.295C129.106 130.225 130.64 124.89 135.309 119.48C135.867 119.034 136.425 118.588 137 118.129C137.833 117.436 137.833 117.436 138.684 116.73C143.421 113.638 147.779 113.212 153.323 113.236C154.485 113.229 154.485 113.229 155.67 113.222C158.262 113.21 160.853 113.211 163.445 113.213C165.304 113.207 167.164 113.2 169.023 113.193C174.073 113.175 179.123 113.17 184.172 113.169C187.328 113.168 190.484 113.163 193.64 113.158C204.652 113.14 215.665 113.131 226.677 113.133C236.937 113.134 247.198 113.113 257.458 113.082C266.271 113.055 275.084 113.045 283.897 113.046C289.159 113.046 294.42 113.041 299.682 113.02C304.632 113 309.582 113 314.533 113.015C316.347 113.017 318.161 113.012 319.975 113C322.457 112.984 324.938 112.994 327.421 113.009C328.133 112.999 328.846 112.989 329.58 112.978C335.816 113.063 340.902 115.208 345.586 119.25C346.032 119.808 346.478 120.366 346.937 120.941C347.63 121.774 347.63 121.774 348.336 122.625C351.956 128.17 351.883 133.343 351.898 139.773C351.905 140.768 351.912 141.763 351.919 142.788C351.929 144.89 351.933 146.993 351.933 149.095C351.937 152.295 351.974 155.493 352.012 158.693C352.018 160.741 352.021 162.788 352.023 164.836C352.038 165.785 352.052 166.734 352.067 167.712C352.023 174.109 350.643 177.921 347.562 183.504C348.054 186.233 348.054 186.233 349.562 188.504C352.173 193.412 351.886 198.352 351.898 203.773C351.905 204.768 351.912 205.763 351.919 206.788C351.929 208.89 351.933 210.993 351.933 213.095C351.937 216.295 351.974 219.493 352.012 222.693C352.018 224.741 352.021 226.788 352.023 228.836C352.038 229.785 352.052 230.734 352.067 231.712C352.029 237.272 351.272 241.082 348.36 245.86C347.29 247.63 347.29 247.63 348.187 250.254C348.641 250.996 349.095 251.739 349.562 252.504C350.237 253.833 350.905 255.166 351.562 256.504C358.427 256.555 365.291 256.59 372.156 256.613C374.485 256.623 376.815 256.637 379.144 256.654C404.79 256.842 426.534 255.276 446.312 237.316C459.67 222.828 464.819 206.327 464.043 186.859C462.859 170.096 454.703 155.942 442.562 144.504C429.335 133.605 412.961 127.357 395.684 128.836C393.364 129.178 391.05 129.559 388.746 129.996C384.403 130.689 380.461 131.26 376.297 129.601C373.475 126.189 372.851 122.183 371.812 117.941C365.688 94.997 354.582 75.9278 338.562 58.5036C337.96 57.8307 337.358 57.1578 336.738 56.4645C312.223 30.4055 277.465 18.4886 242.562 16.5036C206.166 16.5036 173.172 29.9625 146.562 54.5036ZM146.562 131.504C143.226 136.997 144.228 143.993 144.247 150.223C144.25 152.431 144.226 154.638 144.201 156.845C144.199 158.261 144.198 159.677 144.199 161.093C144.196 162.371 144.193 163.648 144.19 164.964C144.602 168.879 145.368 171.24 147.562 174.504C151.642 176.676 155.235 176.757 159.805 176.764C160.883 176.77 160.883 176.77 161.983 176.776C164.386 176.786 166.788 176.782 169.191 176.778C170.916 176.783 172.641 176.788 174.366 176.794C179.048 176.807 183.73 176.808 188.411 176.805C192.32 176.804 196.23 176.809 200.139 176.814C209.361 176.825 218.583 176.825 227.805 176.819C237.318 176.813 246.831 176.826 256.344 176.847C264.513 176.864 272.682 176.87 280.851 176.867C285.73 176.865 290.608 176.868 295.486 176.882C300.074 176.894 304.661 176.893 309.249 176.88C310.931 176.877 312.614 176.88 314.296 176.888C316.596 176.899 318.894 176.891 321.193 176.878C322.479 176.878 323.765 176.878 325.089 176.878C328.896 176.468 331.315 175.503 334.562 173.504C337.899 168.011 336.897 161.015 336.878 154.784C336.875 152.576 336.898 150.37 336.924 148.162C336.926 146.746 336.927 145.33 336.926 143.914C336.929 142.636 336.932 141.359 336.935 140.043C336.523 136.128 335.757 133.767 333.562 130.504C329.483 128.331 325.89 128.25 321.32 128.243C320.242 128.237 320.242 128.237 319.142 128.231C316.739 128.221 314.337 128.225 311.934 128.229C310.209 128.225 308.484 128.219 306.759 128.213C302.077 128.2 297.395 128.199 292.714 128.202C288.804 128.203 284.895 128.198 280.986 128.193C271.764 128.182 262.542 128.182 253.32 128.188C243.807 128.194 234.294 128.182 224.781 128.16C216.612 128.143 208.443 128.137 200.273 128.14C195.395 128.142 190.517 128.139 185.638 128.125C181.051 128.113 176.464 128.115 171.876 128.128C170.194 128.13 168.511 128.127 166.828 128.119C164.529 128.109 162.231 128.117 159.932 128.129C158.646 128.129 157.36 128.129 156.035 128.129C152.228 128.54 149.809 129.504 146.562 131.504ZM146.562 195.504C143.226 200.997 144.228 207.993 144.247 214.223C144.25 216.431 144.226 218.638 144.201 220.845C144.199 222.261 144.198 223.677 144.199 225.093C144.196 226.371 144.193 227.648 144.19 228.964C144.602 232.879 145.368 235.24 147.562 238.504C151.642 240.676 155.235 240.757 159.805 240.764C160.883 240.77 160.883 240.77 161.983 240.776C164.386 240.786 166.788 240.782 169.191 240.778C170.916 240.783 172.641 240.788 174.366 240.794C179.048 240.807 183.73 240.808 188.411 240.805C192.32 240.804 196.23 240.809 200.139 240.814C209.361 240.825 218.583 240.825 227.805 240.819C237.318 240.813 246.831 240.826 256.344 240.847C264.513 240.864 272.682 240.87 280.851 240.867C285.73 240.865 290.608 240.868 295.486 240.882C300.074 240.894 304.661 240.893 309.249 240.88C310.931 240.877 312.614 240.88 314.296 240.888C316.596 240.899 318.894 240.891 321.193 240.878C322.479 240.878 323.765 240.878 325.089 240.878C328.896 240.468 331.315 239.503 334.562 237.504C337.899 232.011 336.897 225.015 336.878 218.784C336.875 216.576 336.898 214.37 336.924 212.162C336.926 210.746 336.927 209.33 336.926 207.914C336.929 206.636 336.932 205.359 336.935 204.043C336.523 200.128 335.757 197.767 333.562 194.504C329.483 192.331 325.89 192.25 321.32 192.243C320.242 192.237 320.242 192.237 319.142 192.231C316.739 192.221 314.337 192.225 311.934 192.229C310.209 192.225 308.484 192.219 306.759 192.213C302.077 192.2 297.395 192.199 292.714 192.202C288.804 192.203 284.895 192.198 280.986 192.193C271.764 192.182 262.542 192.182 253.32 192.188C243.807 192.194 234.294 192.182 224.781 192.16C216.612 192.143 208.443 192.137 200.273 192.14C195.395 192.142 190.517 192.139 185.638 192.125C181.051 192.113 176.464 192.115 171.876 192.128C170.194 192.13 168.511 192.127 166.828 192.119C164.529 192.109 162.231 192.117 159.932 192.129C158.646 192.129 157.36 192.129 156.035 192.129C152.228 192.54 149.809 193.504 146.562 195.504ZM146.562 259.504C143.226 264.997 144.228 271.993 144.247 278.223C144.25 280.431 144.226 282.638 144.201 284.845C144.199 286.261 144.198 287.677 144.199 289.093C144.196 290.371 144.193 291.648 144.19 292.964C144.602 296.879 145.368 299.24 147.562 302.504C151.642 304.676 155.235 304.757 159.805 304.764C160.883 304.77 160.883 304.77 161.983 304.776C164.386 304.786 166.788 304.782 169.191 304.778C170.916 304.783 172.641 304.788 174.366 304.794C179.048 304.807 183.73 304.808 188.411 304.805C192.32 304.804 196.23 304.809 200.139 304.814C209.361 304.825 218.583 304.825 227.805 304.819C237.318 304.813 246.831 304.826 256.344 304.847C264.513 304.864 272.682 304.87 280.851 304.867C285.73 304.865 290.608 304.868 295.486 304.882C300.074 304.894 304.661 304.893 309.249 304.88C310.931 304.877 312.614 304.88 314.296 304.888C316.596 304.899 318.894 304.89 321.193 304.878C322.479 304.878 323.765 304.878 325.089 304.878C328.896 304.468 331.315 303.503 334.562 301.504C337.899 296.011 336.897 289.015 336.878 282.784C336.875 280.576 336.898 278.37 336.924 276.162C336.926 274.746 336.927 273.33 336.926 271.914C336.929 270.636 336.932 269.359 336.935 268.043C336.523 264.128 335.757 261.767 333.562 258.504C329.483 256.331 325.89 256.25 321.32 256.243C320.242 256.237 320.242 256.237 319.142 256.231C316.739 256.221 314.337 256.225 311.934 256.229C310.209 256.225 308.484 256.219 306.759 256.213C302.077 256.2 297.395 256.199 292.714 256.202C288.804 256.203 284.895 256.198 280.986 256.193C271.764 256.182 262.542 256.182 253.32 256.188C243.807 256.194 234.294 256.182 224.781 256.16C216.612 256.143 208.443 256.137 200.273 256.14C195.395 256.142 190.517 256.139 185.638 256.125C181.051 256.113 176.464 256.115 171.876 256.128C170.194 256.13 168.511 256.127 166.828 256.119C164.529 256.109 162.231 256.117 159.932 256.129C158.646 256.129 157.36 256.129 156.035 256.129C152.228 256.54 149.809 257.504 146.562 259.504ZM19.1874 352.129C16.9833 356.706 16.7653 360.509 17.5624 365.504C19.8921 370.342 22.7238 373.174 27.5624 375.504C32.5569 376.301 36.3597 376.083 40.9374 373.879C44.5215 370.636 47.1578 368.039 47.9452 363.105C48.2013 357.421 47.4987 353.854 43.5624 349.504C39.2118 345.567 35.6447 344.865 29.9609 345.121C25.0272 345.908 22.4302 348.545 19.1874 352.129ZM435.187 352.129C432.983 356.706 432.765 360.509 433.562 365.504C435.892 370.342 438.724 373.174 443.562 375.504C448.557 376.301 452.36 376.083 456.937 373.879C460.522 370.636 463.158 368.039 463.945 363.105C464.201 357.421 463.499 353.854 459.562 349.504C455.212 345.567 451.645 344.865 445.961 345.121C441.027 345.908 438.43 348.545 435.187 352.129ZM227.187 424.129C224.983 428.706 224.765 432.509 225.562 437.504C227.892 442.342 230.724 445.174 235.562 447.504C240.557 448.301 244.36 448.083 248.937 445.879C252.522 442.636 255.158 440.039 255.945 435.105C256.201 429.421 255.499 425.854 251.562 421.504C247.212 417.567 243.645 416.865 237.961 417.121C233.027 417.908 230.43 420.545 227.187 424.129ZM107.187 440.129C104.983 444.706 104.765 448.509 105.562 453.504C107.892 458.342 110.724 461.174 115.562 463.504C120.557 464.301 124.36 464.083 128.937 461.879C132.522 458.636 135.158 456.039 135.945 451.105C136.201 445.421 135.499 441.854 131.562 437.504C127.212 433.567 123.645 432.865 117.961 433.121C113.027 433.908 110.43 436.545 107.187 440.129ZM347.187 440.129C344.983 444.706 344.765 448.509 345.562 453.504C347.892 458.342 350.724 461.174 355.562 463.504C360.557 464.301 364.36 464.083 368.937 461.879C372.522 458.636 375.158 456.039 375.945 451.105C376.201 445.421 375.499 441.854 371.562 437.504C367.212 433.567 363.645 432.865 357.961 433.121C353.027 433.908 350.43 436.545 347.187 440.129Z" fill="#4B2E78"/>
<path d="M160.562 272.504C192.242 272.504 223.922 272.504 256.562 272.504C256.562 277.784 256.562 283.064 256.562 288.504C224.882 288.504 193.202 288.504 160.562 288.504C160.562 283.224 160.562 277.944 160.562 272.504Z" fill="#4B2E78"/>
<path d="M160.562 208.504C192.242 208.504 223.922 208.504 256.562 208.504C256.562 213.784 256.562 219.064 256.562 224.504C224.882 224.504 193.202 224.504 160.562 224.504C160.562 219.224 160.562 213.944 160.562 208.504Z" fill="#4B2E78"/>
<path d="M160.562 144.504C192.242 144.504 223.922 144.504 256.562 144.504C256.562 149.784 256.562 155.064 256.562 160.504C224.882 160.504 193.202 160.504 160.562 160.504C160.562 155.224 160.562 149.944 160.562 144.504Z" fill="#4B2E78"/>
<path d="M304.562 272.504C309.842 272.504 315.122 272.504 320.562 272.504C320.562 277.784 320.562 283.064 320.562 288.504C315.282 288.504 310.002 288.504 304.562 288.504C304.562 283.224 304.562 277.944 304.562 272.504Z" fill="#4B2E78"/>
<path d="M272.562 272.504C277.842 272.504 283.122 272.504 288.562 272.504C288.562 277.784 288.562 283.064 288.562 288.504C283.282 288.504 278.002 288.504 272.562 288.504C272.562 283.224 272.562 277.944 272.562 272.504Z" fill="#4B2E78"/>
<path d="M304.562 208.504C309.842 208.504 315.122 208.504 320.562 208.504C320.562 213.784 320.562 219.064 320.562 224.504C315.282 224.504 310.002 224.504 304.562 224.504C304.562 219.224 304.562 213.944 304.562 208.504Z" fill="#4B2E78"/>
<path d="M272.562 208.504C277.842 208.504 283.122 208.504 288.562 208.504C288.562 213.784 288.562 219.064 288.562 224.504C283.282 224.504 278.002 224.504 272.562 224.504C272.562 219.224 272.562 213.944 272.562 208.504Z" fill="#4B2E78"/>
<path d="M304.562 144.504C309.842 144.504 315.122 144.504 320.562 144.504C320.562 149.784 320.562 155.064 320.562 160.504C315.282 160.504 310.002 160.504 304.562 160.504C304.562 155.224 304.562 149.944 304.562 144.504Z" fill="#4B2E78"/>
<path d="M272.562 144.504C277.842 144.504 283.122 144.504 288.562 144.504C288.562 149.784 288.562 155.064 288.562 160.504C283.282 160.504 278.002 160.504 272.562 160.504C272.562 155.224 272.562 149.944 272.562 144.504Z" fill="#4B2E78"/>
</svg>
