<svg width="506" height="514" viewBox="0 0 506 514" fill="none" xmlns="http://www.w3.org/2000/svg">
<path d="M341.525 136.508C347.465 136.508 353.405 136.508 359.525 136.508C359.525 164.558 359.525 192.608 359.525 221.508C362.495 222.498 365.465 223.488 368.525 224.508C370.835 225.828 373.145 227.148 375.525 228.508C375.525 209.368 375.525 190.228 375.525 170.508C381.465 170.508 387.405 170.508 393.525 170.508C393.482 172.586 393.439 174.663 393.395 176.804C393.262 183.72 393.208 190.636 393.191 197.555C393.179 201.744 393.141 205.929 393.042 210.118C392.947 214.171 392.923 218.22 392.945 222.275C392.941 223.81 392.914 225.345 392.86 226.879C392.836 227.611 392.812 228.343 392.787 229.097C392.758 229.733 392.73 230.368 392.701 231.023C393.527 244.723 396.928 243.911 408.525 255.508C408.855 238.678 409.185 221.848 409.525 204.508C415.465 204.508 421.405 204.508 427.525 204.508C427.529 207.005 427.534 209.501 427.538 212.073C427.555 220.375 427.6 228.677 427.657 236.979C427.692 242.006 427.717 247.033 427.721 252.061C427.725 256.924 427.754 261.787 427.799 266.65C427.812 268.493 427.816 270.337 427.812 272.181C427.789 284.062 429.206 293.416 433.525 304.508C434.299 307.37 434.884 310.205 435.338 313.133C435.456 313.861 435.573 314.589 435.694 315.339C437.291 326.388 437.75 338.527 435.525 349.508C438.495 349.508 441.465 349.508 444.525 349.508C444.525 355.448 444.525 361.388 444.525 367.508C440.235 367.508 435.945 367.508 431.525 367.508C431.154 368.869 430.783 370.231 430.4 371.633C429.045 376.191 427.311 380.524 425.408 384.875C424.992 385.837 424.992 385.837 424.567 386.818C423.889 388.383 423.207 389.946 422.525 391.508C422.942 391.924 423.358 392.339 423.788 392.768C433.914 402.871 444.037 412.978 454.157 423.088C459.051 427.977 463.946 432.865 468.843 437.75C473.566 442.462 478.285 447.176 483.004 451.892C484.808 453.694 486.613 455.495 488.419 457.296C490.94 459.81 493.459 462.327 495.976 464.846C496.73 465.596 497.484 466.346 498.261 467.119C498.944 467.803 499.626 468.488 500.33 469.193C501.225 470.086 501.225 470.086 502.137 470.997C504.661 473.745 505.194 476.483 505.088 480.203C503.979 484.749 500.504 487.619 497.248 490.812C495.15 492.878 493.089 494.978 491.025 497.078C487.84 500.305 484.651 503.527 481.439 506.727C480.758 507.407 480.077 508.087 479.375 508.787C475.582 512.316 472.97 513.163 467.94 513.026C463.213 512.012 460.403 508.554 457.16 505.164C455.988 503.994 455.988 503.994 454.791 502.8C452.221 500.223 449.684 497.617 447.146 495.008C445.368 493.213 443.587 491.419 441.804 489.627C437.601 485.394 433.419 481.141 429.247 476.878C424.493 472.023 419.714 467.194 414.932 462.368C405.101 452.443 395.303 442.486 385.525 432.508C384.597 433.048 383.668 433.588 382.711 434.144C381.463 434.864 380.215 435.585 378.967 436.305C378.358 436.659 377.75 437.014 377.123 437.379C350.635 452.625 317.963 458.095 288.162 450.438C266.229 444.409 248.094 434.105 231.525 418.508C230.62 417.7 230.62 417.7 229.697 416.875C216.805 404.887 206.235 386.403 201.525 369.508C201.525 368.848 201.525 368.188 201.525 367.508C163.245 367.508 124.965 367.508 85.5254 367.508C85.5254 361.568 85.5254 355.628 85.5254 349.508C122.485 349.508 159.445 349.508 197.525 349.508C197.195 347.528 196.865 345.548 196.525 343.508C195.825 333.41 196.098 323.127 197.713 313.133C197.814 312.483 197.915 311.832 198.019 311.161C198.631 307.799 199.439 304.724 200.706 301.538C205.099 290.257 205.26 279.697 205.232 267.7C205.246 265.636 205.261 263.572 205.278 261.509C205.318 256.128 205.328 250.748 205.332 245.367C205.342 239.856 205.379 234.345 205.414 228.834C205.478 218.059 205.509 207.284 205.525 196.508C211.465 196.508 217.405 196.508 223.525 196.508C223.855 215.978 224.185 235.448 224.525 255.508C237.832 244.188 237.832 244.188 240.264 230.469C240.214 229.185 240.163 227.901 240.111 226.578C240.108 225.208 240.11 223.838 240.119 222.468C240.124 218.911 240.047 215.361 239.95 211.806C239.867 208.159 239.864 204.512 239.854 200.864C239.822 193.743 239.695 186.627 239.525 179.508C245.465 179.508 251.405 179.508 257.525 179.508C257.525 195.678 257.525 211.848 257.525 228.508C262.145 226.198 266.765 223.888 271.525 221.508C272.185 221.508 272.845 221.508 273.525 221.508C273.525 210.288 273.525 199.068 273.525 187.508C279.465 187.508 285.405 187.508 291.525 187.508C291.525 196.748 291.525 205.988 291.525 215.508C296.805 214.848 302.085 214.188 307.525 213.508C307.525 193.708 307.525 173.908 307.525 153.508C313.465 153.508 319.405 153.508 325.525 153.508C325.525 173.308 325.525 193.108 325.525 213.508C330.805 214.168 336.085 214.828 341.525 215.508C341.525 189.438 341.525 163.368 341.525 136.508ZM250.525 255.508C249.816 256.05 249.107 256.591 248.377 257.149C229.061 272.76 217.559 298.293 214.722 322.457C212.069 350.18 220.409 376.853 237.936 398.446C255.649 419.641 279.517 432.065 306.955 435.192C333.927 437.582 360.547 429.267 381.467 412.125C402.723 394.136 415.975 369.438 418.525 341.508C420.324 313.582 411.713 287.778 393.525 266.508C393.082 265.92 392.639 265.333 392.182 264.727C378.467 246.999 353.711 235.26 331.924 231.977C301.449 228.261 274.412 236.534 250.525 255.508ZM410.525 407.508C408.581 409.47 406.732 411.445 404.9 413.508C404.127 414.367 404.127 414.367 403.338 415.243C402.062 416.66 400.793 418.084 399.525 419.508C403.511 424.285 407.67 428.794 412.082 433.178C412.707 433.803 413.332 434.428 413.976 435.073C416.019 437.115 418.065 439.153 420.111 441.192C421.538 442.616 422.964 444.041 424.39 445.466C428.126 449.199 431.866 452.928 435.605 456.657C439.428 460.469 443.248 464.285 447.068 468.1C454.551 475.572 462.037 483.041 469.525 490.508C473.158 488.812 475.471 486.77 478.275 483.883C479.075 483.066 479.874 482.249 480.697 481.407C481.301 480.78 481.904 480.154 482.525 479.508C481.241 476.691 479.901 474.634 477.717 472.446C477.145 471.868 476.573 471.29 475.983 470.695C475.045 469.763 475.045 469.763 474.088 468.812C473.097 467.816 473.097 467.816 472.087 466.8C469.905 464.609 467.715 462.426 465.525 460.243C464.008 458.724 462.491 457.205 460.975 455.686C457.797 452.505 454.616 449.328 451.432 446.154C447.342 442.076 443.262 437.989 439.184 433.899C436.055 430.763 432.921 427.631 429.786 424.501C428.279 422.995 426.773 421.488 425.269 419.979C423.172 417.877 421.068 415.781 418.963 413.687C418.337 413.057 417.712 412.428 417.067 411.779C414.309 408.595 414.309 408.595 410.525 407.508Z" fill="#4B2E78"/>
<path d="M101.454 68.007C102.93 68.0031 104.406 67.9975 105.882 67.9902C109.906 67.9756 113.929 67.9856 117.953 68C122.305 68.0111 126.657 67.9991 131.009 67.9901C139.521 67.9762 148.033 67.9837 156.545 67.9988C166.465 68.0157 176.384 68.0124 186.304 68.0087C204.005 68.0028 221.707 68.017 239.408 68.0417C256.573 68.0656 273.738 68.0727 290.903 68.0622C309.611 68.0507 328.32 68.0488 347.028 68.0633C349.023 68.0648 351.019 68.0663 353.015 68.0678C353.997 68.0686 354.979 68.0693 355.99 68.0701C362.9 68.0749 369.81 68.073 376.72 68.0688C385.142 68.0638 393.565 68.0698 401.987 68.0897C406.282 68.0995 410.577 68.1047 414.872 68.0968C418.807 68.0897 422.742 68.0966 426.678 68.1144C428.097 68.1184 429.517 68.1174 430.937 68.1108C445.132 68.0506 456.795 70.8879 467.338 80.8832C477.895 92.21 479.681 104.941 479.659 119.868C479.661 121.005 479.664 122.143 479.666 123.315C479.672 127.123 479.671 130.931 479.671 134.74C479.673 137.472 479.677 140.203 479.681 142.935C479.689 149.584 479.692 156.233 479.692 162.882C479.693 168.289 479.695 173.696 479.698 179.103C479.707 194.445 479.712 209.787 479.711 225.129C479.711 226.369 479.711 226.369 479.711 227.634C479.711 228.461 479.711 229.289 479.711 230.141C479.71 243.548 479.72 256.955 479.734 270.362C479.748 284.141 479.755 297.919 479.754 311.698C479.754 319.428 479.757 327.159 479.767 334.889C479.777 341.472 479.779 348.055 479.772 354.638C479.769 357.993 479.77 361.348 479.777 364.703C479.785 368.349 479.78 371.995 479.773 375.641C479.778 376.689 479.783 377.738 479.788 378.819C479.734 390.548 478.354 402.894 469.713 411.633C468.991 412.252 468.269 412.871 467.525 413.508C466.838 412.882 466.151 412.255 465.443 411.61C464.092 410.384 464.092 410.384 462.713 409.133C461.82 408.321 460.926 407.509 460.006 406.672C457.529 404.417 457.529 404.417 454.525 402.508C455.578 399.756 456.702 397.176 458.088 394.571C461.107 388.138 460.669 381.371 460.659 374.407C460.661 373.285 460.664 372.164 460.666 371.008C460.672 367.247 460.671 363.486 460.671 359.726C460.674 357.03 460.677 354.335 460.681 351.639C460.689 345.075 460.692 338.512 460.692 331.948C460.693 326.612 460.695 321.276 460.698 315.939C460.707 300.803 460.712 285.666 460.711 270.529C460.711 269.713 460.711 268.898 460.711 268.057C460.711 267.241 460.711 266.424 460.711 265.583C460.71 252.349 460.72 239.115 460.734 225.881C460.748 212.286 460.755 198.69 460.754 185.095C460.754 177.465 460.757 169.835 460.767 162.205C460.777 155.709 460.779 149.212 460.772 142.716C460.769 139.403 460.77 136.091 460.777 132.779C460.785 129.182 460.78 125.586 460.773 121.99C460.78 120.431 460.78 120.431 460.788 118.84C460.741 108.929 459.743 100.758 452.525 93.5082C447.078 89.3582 442.586 87.3849 435.681 87.3768C434.454 87.3729 433.227 87.3691 431.962 87.3651C430.593 87.3659 429.224 87.3668 427.855 87.3678C426.406 87.3652 424.958 87.3622 423.509 87.3588C419.518 87.3507 415.526 87.3489 411.535 87.3482C407.235 87.3463 402.934 87.3388 398.633 87.332C389.224 87.3184 379.815 87.3124 370.406 87.308C364.532 87.3053 358.658 87.301 352.784 87.2965C336.526 87.2843 320.267 87.274 304.008 87.2706C302.967 87.2704 301.926 87.2702 300.854 87.27C299.288 87.2697 299.288 87.2696 297.692 87.2693C295.577 87.2689 293.462 87.2684 291.348 87.268C290.299 87.2678 289.25 87.2675 288.169 87.2673C271.174 87.2634 254.18 87.2459 237.185 87.2226C219.742 87.1989 202.299 87.1864 184.856 87.1853C175.06 87.1844 165.264 87.1786 155.468 87.1605C147.127 87.1451 138.785 87.1399 130.443 87.1482C126.187 87.1521 121.931 87.1512 117.675 87.1371C113.777 87.1244 109.879 87.1256 105.981 87.1377C104.573 87.1397 103.164 87.1366 101.756 87.1279C92.9837 87.0771 86.4568 87.5264 78.8379 92.1332C73.7609 97.3474 70.4065 103.943 70.3912 111.254C70.3867 112.236 70.3822 113.218 70.3777 114.23C70.3778 115.311 70.378 116.393 70.3782 117.507C70.3745 118.655 70.3709 119.802 70.3671 120.983C70.3579 124.173 70.3533 127.362 70.3507 130.551C70.3468 133.989 70.3372 137.427 70.3285 140.864C70.3087 149.17 70.2986 157.476 70.2897 165.782C70.2854 169.694 70.28 173.607 70.2748 177.519C70.2577 190.526 70.2432 203.534 70.236 216.541C70.2341 219.917 70.2322 223.293 70.2302 226.669C70.2297 227.508 70.2292 228.347 70.2288 229.211C70.2205 242.797 70.1951 256.383 70.1626 269.968C70.1295 283.919 70.1116 297.871 70.1084 311.822C70.1062 319.654 70.0975 327.486 70.0719 335.317C70.0502 341.989 70.0422 348.66 70.0519 355.332C70.0564 358.733 70.0546 362.135 70.0351 365.537C70.0174 369.231 70.0245 372.925 70.0376 376.62C70.0267 377.686 70.0157 378.752 70.0044 379.851C70.0742 387.987 71.6609 394.947 76.8379 401.383C82.2055 405.627 87.355 408.614 94.3279 408.666C95.3165 408.676 96.3051 408.686 97.3236 408.696C98.9485 408.705 98.9485 408.705 100.606 408.714C101.748 408.723 102.889 408.733 104.066 408.744C107.848 408.775 111.63 408.8 115.412 408.825C118.031 408.845 120.65 408.866 123.269 408.888C129.463 408.938 135.657 408.982 141.851 409.026C148.903 409.075 155.955 409.13 163.007 409.185C177.513 409.299 192.019 409.406 206.525 409.508C206.525 415.448 206.525 421.388 206.525 427.508C191.234 427.601 175.943 427.672 160.652 427.715C153.551 427.736 146.45 427.764 139.348 427.81C133.153 427.85 126.959 427.876 120.763 427.885C117.488 427.89 114.213 427.904 110.938 427.931C107.267 427.96 103.596 427.964 99.925 427.962C98.859 427.977 97.793 427.991 96.6947 428.006C83.8684 427.937 73.0788 424.086 63.5254 415.508C56.0717 407.77 51.4134 397.192 51.3912 386.447C51.3867 385.445 51.3822 384.444 51.3777 383.412C51.3778 382.318 51.378 381.225 51.3782 380.099C51.3745 378.932 51.3709 377.765 51.3671 376.562C51.358 373.326 51.3533 370.09 51.3507 366.855C51.3468 363.363 51.3372 359.871 51.3285 356.38C51.3087 347.948 51.2986 339.517 51.2897 331.086C51.2854 327.112 51.28 323.138 51.2747 319.164C51.2577 305.946 51.2432 292.728 51.236 279.511C51.2341 276.082 51.2322 272.654 51.2302 269.225C51.2297 268.373 51.2293 267.521 51.2288 266.643C51.2205 252.85 51.1951 239.056 51.1626 225.262C51.1295 211.088 51.1116 196.914 51.1084 182.74C51.1062 174.787 51.0975 166.834 51.0719 158.881C51.0501 152.106 51.0422 145.331 51.0519 138.555C51.0564 135.103 51.0546 131.65 51.0351 128.197C51.0173 124.442 51.0245 120.688 51.0376 116.934C51.0212 115.32 51.0212 115.32 51.0044 113.675C51.1111 100.963 54.8412 89.8784 63.5254 80.5082C74.7408 70.2748 86.6323 67.8975 101.454 68.007Z" fill="#4B2E78"/>
<path d="M368.525 264.508C372.019 267.359 375.31 270.347 378.525 273.508C379.573 274.537 379.573 274.537 380.643 275.586C395.156 290.834 402.393 312.149 402.9 332.946C402.283 357.407 393.279 378.312 376.182 395.922C358.536 412.594 336.45 419.758 312.525 419.508C289.055 418.222 268.349 408.174 252.213 391.196C237.036 373.658 229.678 352.33 230.24 329.262C232.156 304.038 243.431 282.113 262.525 265.508C293.508 241.517 337.222 240.967 368.525 264.508ZM297.838 267.946C296.865 268.213 295.891 268.479 294.889 268.754C292.593 269.288 292.593 269.288 291.525 270.508C291.431 272.472 291.408 274.439 291.412 276.405C291.412 277.666 291.412 278.927 291.412 280.227C291.417 281.614 291.422 283 291.428 284.387C291.43 285.798 291.431 287.209 291.432 288.62C291.436 292.341 291.446 296.061 291.457 299.781C291.467 303.575 291.471 307.369 291.477 311.163C291.487 318.611 291.505 326.06 291.525 333.508C285.585 333.508 279.645 333.508 273.525 333.508C273.525 316.348 273.525 299.188 273.525 281.508C259.264 293.732 250.222 308.509 248.525 327.508C248.13 335.373 249.067 341.486 250.525 349.508C294.085 349.508 337.645 349.508 382.525 349.508C386.375 328.335 383.385 311.561 371.693 293.711C368.018 288.767 364.389 285.677 359.525 281.508C359.525 298.668 359.525 315.828 359.525 333.508C353.585 333.508 347.645 333.508 341.525 333.508C341.525 312.718 341.525 291.928 341.525 270.508C334.4 267.054 334.4 267.054 325.525 266.508C325.525 288.618 325.525 310.728 325.525 333.508C319.585 333.508 313.645 333.508 307.525 333.508C307.525 311.398 307.525 289.288 307.525 266.508C303.856 266.508 301.33 266.971 297.838 267.946ZM258.525 367.508C267.185 382.663 279.895 392.905 296.498 398.512C314.651 403.463 332.774 401.754 349.498 392.942C359.827 386.68 368.294 378.907 374.525 368.508C374.525 368.178 374.525 367.848 374.525 367.508C336.245 367.508 297.965 367.508 258.525 367.508Z" fill="#4B2E78"/>
<path d="M39.5017 0.373967C40.7584 0.369509 42.0151 0.365052 43.3099 0.360459C44.7123 0.360548 46.1147 0.360738 47.5171 0.361017C49.0009 0.357719 50.4847 0.353993 51.9685 0.349876C56.0565 0.339847 60.1444 0.336138 64.2324 0.333486C68.6375 0.329586 73.0426 0.320007 77.4477 0.311274C88.0925 0.2915 98.7373 0.281441 109.382 0.272546C114.395 0.268164 119.407 0.262797 124.419 0.257557C141.082 0.240542 157.745 0.226049 174.408 0.218808C178.733 0.216898 183.058 0.214978 187.383 0.213022C188.458 0.212539 189.533 0.212055 190.641 0.211556C208.051 0.203258 225.461 0.177926 242.871 0.145442C260.744 0.112364 278.618 0.0943587 296.492 0.091164C306.527 0.0889993 316.563 0.0802576 326.598 0.0547028C335.147 0.0329861 343.695 0.0249501 352.243 0.0346696C356.603 0.0392117 360.962 0.0373332 365.322 0.0179081C369.318 0.000256948 373.314 0.00128978 377.31 0.0168054C378.751 0.0191786 380.192 0.0148731 381.633 0.00297677C394.842 -0.0992718 404.72 2.40684 414.525 11.5082C419.355 16.2808 422.991 21.19 425.525 27.5082C425.888 28.3744 426.25 29.2407 426.623 30.1332C427.82 34.61 427.741 38.7744 427.65 43.3832C427.637 44.7019 427.637 44.7019 427.623 46.0472C427.6 48.201 427.564 50.3546 427.525 52.5082C421.585 52.5082 415.645 52.5082 409.525 52.5082C409.422 50.1776 409.319 47.8469 409.213 45.4457C408.696 36.9542 406.874 31.8097 401.514 25.184C393.968 18.8246 386.595 18.9354 377.14 19.0003C375.675 18.9956 374.209 18.9893 372.744 18.9813C368.729 18.9647 364.716 18.9729 360.701 18.9853C356.367 18.9944 352.033 18.9804 347.699 18.9694C339.214 18.9516 330.729 18.9554 322.243 18.967C315.347 18.9761 308.45 18.9773 301.553 18.9729C300.081 18.972 300.081 18.972 298.578 18.9711C296.583 18.9698 294.589 18.9685 292.594 18.9672C273.893 18.9558 255.193 18.9689 236.492 18.9904C220.448 19.0083 204.405 19.0051 188.362 18.9867C169.728 18.9653 151.094 18.9569 132.459 18.9692C130.472 18.9704 128.485 18.9717 126.498 18.9729C125.031 18.9739 125.031 18.9739 123.535 18.9748C116.647 18.9782 109.759 18.9724 102.871 18.963C94.4765 18.9518 86.0818 18.9548 77.687 18.9761C73.4045 18.9866 69.1222 18.9908 64.8397 18.9775C60.9177 18.9656 56.9963 18.9722 53.0744 18.9934C51.6573 18.9979 50.2401 18.9957 48.823 18.9859C39.9782 18.93 33.5184 19.3 26.5371 25.184C26.1001 25.7241 25.6632 26.2642 25.2129 26.8207C24.5381 27.6193 24.5381 27.6193 23.8496 28.434C19.4443 35.3343 19.0929 41.0293 19.1377 49.0711C19.1324 50.2305 19.127 51.3899 19.1214 52.5844C19.1096 55.7893 19.1112 58.994 19.1186 62.1989C19.1233 65.6605 19.1108 69.1221 19.1006 72.5836C19.0834 79.3603 19.0825 86.1368 19.0878 92.9134C19.0918 98.4228 19.0904 103.932 19.085 109.442C19.0839 110.619 19.0839 110.619 19.0828 111.819C19.0812 113.413 19.0797 115.008 19.0781 116.602C19.0644 131.546 19.0699 146.49 19.0813 161.434C19.0913 175.098 19.0783 188.762 19.0544 202.425C19.03 216.464 19.0204 230.502 19.0271 244.541C19.0305 252.419 19.0283 260.297 19.0108 268.175C18.9961 274.882 18.9955 281.589 19.0129 288.295C19.0214 291.715 19.0235 295.135 19.0082 298.555C18.995 302.267 19.0065 305.979 19.0242 309.691C19.0146 310.765 19.005 311.839 18.9951 312.946C19.0729 320.899 20.7198 326.981 25.7129 333.258C29.3927 336.202 33.3401 338.365 37.5254 340.508C36.4866 346.619 35.3681 352.585 33.5254 358.508C20.7888 354.764 11.0026 348.281 4.52542 336.508C1.03971 328.359 -0.0538676 320.962 0.0242128 312.161C0.0159112 310.386 0.0159127 310.386 0.00744342 308.575C-0.00372846 305.326 0.00278512 302.078 0.0171785 298.829C0.0283632 295.312 0.0163214 291.794 0.00733661 288.277C-0.00654635 281.401 0.000922179 274.525 0.0160112 267.649C0.0329293 259.633 0.0296547 251.616 0.025918 243.6C0.0200487 229.293 0.0341756 214.985 0.0588655 200.678C0.0827926 186.811 0.0898651 172.944 0.0793734 159.078C0.0679524 143.956 0.0660485 128.834 0.080472 113.712C0.0819977 112.098 0.0835195 110.484 0.0850344 108.87C0.0857922 108.076 0.0865462 107.283 0.087327 106.465C0.09206 100.883 0.0902254 95.3018 0.0859651 89.7203C0.0810279 82.9155 0.0870727 76.1108 0.106862 69.306C0.116702 65.8373 0.121874 62.3689 0.113969 58.9002C0.108001 55.1338 0.120552 51.3679 0.137738 47.6015C0.131728 46.5144 0.125719 45.4272 0.119527 44.3071C0.22325 31.7815 4.18386 21.2576 12.5254 11.8207C19.3774 5.32367 30.1299 0.389352 39.5017 0.373967Z" fill="#4B2E78"/>
<path d="M136.525 230.508C142.465 230.508 148.405 230.508 154.525 230.508C154.525 264.498 154.525 298.488 154.525 333.508C148.585 333.508 142.645 333.508 136.525 333.508C136.525 299.518 136.525 265.528 136.525 230.508Z" fill="#4B2E78"/>
<path d="M170.525 256.508C176.465 256.508 182.405 256.508 188.525 256.508C188.525 281.918 188.525 307.328 188.525 333.508C182.585 333.508 176.645 333.508 170.525 333.508C170.525 308.098 170.525 282.688 170.525 256.508Z" fill="#4B2E78"/>
<path d="M102.525 281.508C108.465 281.508 114.405 281.508 120.525 281.508C120.525 298.668 120.525 315.828 120.525 333.508C114.585 333.508 108.645 333.508 102.525 333.508C102.525 316.348 102.525 299.188 102.525 281.508Z" fill="#4B2E78"/>
<path d="M153.525 102.508C159.465 102.508 165.405 102.508 171.525 102.508C171.525 108.448 171.525 114.388 171.525 120.508C165.585 120.508 159.645 120.508 153.525 120.508C153.525 114.568 153.525 108.628 153.525 102.508Z" fill="#4B2E78"/>
<path d="M119.525 102.508C125.465 102.508 131.405 102.508 137.525 102.508C137.525 108.448 137.525 114.388 137.525 120.508C131.585 120.508 125.645 120.508 119.525 120.508C119.525 114.568 119.525 108.628 119.525 102.508Z" fill="#4B2E78"/>
<path d="M85.5254 102.508C91.4654 102.508 97.4054 102.508 103.525 102.508C103.525 108.448 103.525 114.388 103.525 120.508C97.5854 120.508 91.6454 120.508 85.5254 120.508C85.5254 114.568 85.5254 108.628 85.5254 102.508Z" fill="#4B2E78"/>
<path d="M102.525 34.5082C108.465 34.5082 114.405 34.5082 120.525 34.5082C120.525 40.4482 120.525 46.3882 120.525 52.5082C114.585 52.5082 108.645 52.5082 102.525 52.5082C102.525 46.5682 102.525 40.6282 102.525 34.5082Z" fill="#4B2E78"/>
<path d="M68.5254 34.5082C74.4654 34.5082 80.4054 34.5082 86.5254 34.5082C86.5254 40.4482 86.5254 46.3882 86.5254 52.5082C80.5854 52.5082 74.6454 52.5082 68.5254 52.5082C68.5254 46.5682 68.5254 40.6282 68.5254 34.5082Z" fill="#4B2E78"/>
<path d="M34.5254 34.5082C40.4654 34.5082 46.4054 34.5082 52.5254 34.5082C52.5254 40.4482 52.5254 46.3882 52.5254 52.5082C46.5854 52.5082 40.6454 52.5082 34.5254 52.5082C34.5254 46.5682 34.5254 40.6282 34.5254 34.5082Z" fill="#4B2E78"/>
</svg>
