<svg width="482" height="490" viewBox="0 0 482 490" fill="none" xmlns="http://www.w3.org/2000/svg">
<path d="M36.5602 248.228C37.7657 248.215 37.7657 248.215 38.9957 248.202C41.6497 248.179 44.3026 248.186 46.9567 248.195C48.8022 248.19 50.6478 248.184 52.4934 248.176C56.3604 248.166 60.2269 248.17 64.0939 248.185C69.0509 248.202 74.0067 248.179 78.9636 248.144C82.7743 248.122 86.5848 248.123 90.3956 248.131C92.2232 248.132 94.0509 248.125 95.8785 248.111C98.4333 248.093 100.986 248.108 103.541 248.13C104.296 248.119 105.052 248.107 105.83 248.095C109.626 248.164 111.227 248.454 114.02 251.113C115.905 254.375 116.169 256.05 115.55 259.762C114.23 261.412 112.91 263.062 111.55 264.762C88.1204 264.762 64.6904 264.762 40.5504 264.762C40.5504 317.562 40.5504 370.362 40.5504 424.762C109.19 424.762 177.83 424.762 248.55 424.762C248.55 397.372 248.55 369.982 248.55 341.762C253.55 337.762 253.55 337.762 256.55 337.262C260.405 337.904 261.86 338.927 264.55 341.762C265.029 344.652 265.186 346.949 265.118 349.835C265.119 350.645 265.119 351.455 265.12 352.29C265.117 354.963 265.078 357.635 265.039 360.308C265.029 362.164 265.022 364.019 265.017 365.874C264.998 370.754 264.949 375.632 264.894 380.512C264.843 385.492 264.82 390.472 264.795 395.453C264.741 405.223 264.656 414.992 264.55 424.762C265.135 424.741 265.72 424.72 266.323 424.698C268.982 424.615 271.641 424.563 274.3 424.512C275.221 424.478 276.141 424.444 277.089 424.41C283.909 424.311 283.909 424.311 287.159 426.593C289.049 429.538 289.068 431.621 289.082 435.109C289.087 436.355 289.092 437.601 289.097 438.885C289.082 440.185 289.066 441.485 289.05 442.824C289.066 444.097 289.081 445.37 289.097 446.681C289.046 459.071 286.199 468.702 277.55 477.762C265.203 489.548 251.84 489.346 235.73 489.279C233.52 489.285 231.309 489.292 229.099 489.3C223.12 489.318 217.141 489.312 211.161 489.299C204.891 489.289 198.621 489.298 192.351 489.304C181.149 489.312 169.948 489.3 158.747 489.279C148.609 489.261 138.471 489.265 128.334 489.283C116.536 489.304 104.738 489.312 92.9395 489.301C86.7034 489.294 80.4675 489.293 74.2315 489.307C68.3676 489.318 62.504 489.31 56.6401 489.287C54.4936 489.282 52.347 489.283 50.2005 489.292C35.1057 489.349 23.0202 488.711 11.5504 477.762C1.75313 467.499 -0.117731 456.661 0.050415 442.824C0.0349463 441.524 0.0194775 440.224 0.00354004 438.885C0.00869628 437.639 0.0138525 436.393 0.019165 435.109C0.0236767 433.985 0.0281885 432.861 0.0328369 431.703C0.702519 427.897 1.3797 426.988 4.55042 424.762C7.97889 424.266 11.3456 424.386 14.8004 424.512C15.7363 424.53 16.6721 424.548 17.6364 424.566C19.9421 424.613 22.2457 424.679 24.5504 424.762C24.5467 423.879 24.543 422.996 24.5392 422.086C24.451 400.621 24.3847 379.156 24.3432 357.691C24.3225 347.31 24.2944 336.93 24.2487 326.55C24.2088 317.504 24.183 308.458 24.1741 299.412C24.1688 294.62 24.1565 289.829 24.1275 285.038C24.1004 280.53 24.092 276.023 24.098 271.515C24.0969 269.859 24.0889 268.203 24.0736 266.547C24.0537 264.288 24.0585 262.031 24.0694 259.772C24.0657 258.508 24.062 257.243 24.0582 255.94C24.5504 252.762 24.5504 252.762 26.3552 250.355C29.5842 248.011 32.7188 248.195 36.5602 248.228ZM16.5504 440.762C16.5504 450.346 17.1014 458.265 23.5504 465.762C33.0704 473.951 44.7613 473.022 56.5504 472.762C56.5878 471.93 56.6252 471.099 56.6637 470.242C56.7294 469.155 56.7952 468.069 56.8629 466.949C56.9499 465.331 56.9499 465.331 57.0387 463.679C57.5504 460.762 57.5504 460.762 58.8434 458.898C60.9025 457.527 62.0902 457.359 64.5504 457.387C65.231 457.379 65.9117 457.371 66.6129 457.363C68.5504 457.762 68.5504 457.762 71.5504 460.762C72.0454 466.702 72.0454 466.702 72.5504 472.762C120.07 472.762 167.59 472.762 216.55 472.762C216.88 468.802 217.21 464.842 217.55 460.762C220.55 457.762 220.55 457.762 222.488 457.363C223.169 457.371 223.849 457.379 224.55 457.387C225.231 457.379 225.912 457.371 226.613 457.363C229.218 457.899 230.032 458.574 231.55 460.762C232.062 463.679 232.062 463.679 232.238 466.949C232.304 468.036 232.369 469.122 232.437 470.242C232.493 471.489 232.493 471.489 232.55 472.762C249.045 473.581 249.045 473.581 263.55 466.762C271.477 458.778 272.55 451.994 272.55 440.762C188.07 440.762 103.59 440.762 16.5504 440.762Z" fill="#4B2E78"/>
<path d="M246.55 176.761C252.791 181.023 258.219 190.338 259.675 197.699C259.53 201.268 258.759 202.98 256.55 205.761C253.317 207.378 250.033 207.49 246.55 206.761C244.344 204.973 243.178 203.155 241.55 200.761C240.56 199.771 240.56 199.771 239.55 198.761C238.945 199.318 238.339 199.875 237.714 200.449C232.767 204.955 227.741 209.277 222.488 213.421C218.787 216.369 215.137 219.375 211.488 222.386C210.763 222.984 210.038 223.582 209.291 224.199C207.796 225.433 206.301 226.667 204.806 227.901C202.584 229.734 200.359 231.563 198.132 233.39C191.59 238.764 185.062 244.15 178.613 249.636C174.282 253.32 169.895 256.916 165.437 260.445C160.698 264.248 156.026 268.133 151.35 272.014C150.644 272.599 149.938 273.183 149.211 273.785C148.578 274.31 147.945 274.835 147.293 275.376C145.773 276.585 144.166 277.684 142.55 278.761C143.139 282.818 144.443 285.673 146.535 289.183C147.141 290.209 147.747 291.235 148.371 292.292C149.008 293.355 149.644 294.417 150.3 295.511C152.722 299.591 155.14 303.674 157.55 307.761C158.067 308.632 158.584 309.502 159.117 310.399C159.573 311.187 160.029 311.976 160.5 312.789C161.097 313.809 161.097 313.809 161.705 314.851C163.153 318.125 162.652 320.455 161.55 323.761C159.925 326.199 159.925 326.199 157.55 327.761C153.536 328.345 151.441 328.358 148.039 326.079C145.378 323.6 143.903 321.372 142.175 318.183C141.286 316.565 141.286 316.565 140.379 314.914C139.775 313.791 139.172 312.668 138.55 311.511C137.344 309.297 136.136 307.083 134.925 304.871C134.354 303.825 133.783 302.778 133.195 301.701C131.105 297.966 128.867 294.359 126.55 290.761C121.464 293.509 116.392 296.277 111.363 299.128C110.649 299.533 109.936 299.937 109.201 300.353C107.782 301.159 106.364 301.967 104.947 302.777C102.172 304.351 99.5851 305.75 96.5504 306.761C94.0997 310.776 92.8739 315.088 92.5504 319.761C94.597 327.739 99.3075 335.031 103.425 342.074C104.025 343.131 104.624 344.189 105.242 345.279C108.85 351.481 111.976 356.474 118.55 359.761C125.931 360.846 130.818 358.611 137.05 354.886C138.355 354.142 138.355 354.142 139.685 353.383C143.813 351.015 147.886 348.567 151.925 346.05C158.764 341.814 165.328 338.248 172.992 335.75C182.164 332.643 191.238 329.302 200.297 325.882C201.001 325.617 201.705 325.351 202.43 325.078C206.857 323.408 211.282 321.735 215.706 320.061C219.554 318.606 223.404 317.155 227.253 315.703C240.239 310.804 253.221 305.895 266.187 300.945C267.94 300.277 269.693 299.609 271.445 298.941C274.51 297.773 277.573 296.598 280.634 295.419C281.953 294.916 283.271 294.413 284.589 293.91C285.685 293.489 286.78 293.068 287.908 292.634C290.55 291.761 290.55 291.761 293.55 291.761C285.454 277.183 277.242 262.688 268.804 248.304C268.279 247.405 267.753 246.506 267.211 245.579C266.027 243.569 264.828 241.568 263.62 239.572C262.987 238.517 262.355 237.462 261.703 236.375C261.124 235.42 260.545 234.465 259.949 233.481C258.064 229.816 257.184 227.161 258.238 223.136C259.749 220.402 260.787 219.22 263.55 217.761C267.266 217.208 268.915 217.328 272.042 219.46C274.651 221.853 276.072 223.921 277.75 227.023C278.314 228.05 278.877 229.078 279.458 230.136C280.046 231.229 280.633 232.322 281.238 233.449C282.492 235.736 283.747 238.022 285.004 240.308C285.613 241.421 286.222 242.534 286.849 243.681C288.993 247.563 291.218 251.39 293.488 255.199C297.922 262.665 302.274 270.177 306.613 277.699C306.951 278.284 307.289 278.87 307.637 279.473C316.012 293.979 316.012 293.979 314.55 299.761C311.235 302.774 308.139 304.55 303.953 306.092C302.842 306.507 301.732 306.922 300.587 307.35C299.381 307.79 298.176 308.23 296.933 308.683C295.646 309.161 294.36 309.639 293.074 310.119C290.328 311.141 287.58 312.159 284.831 313.175C278.371 315.564 271.932 318.009 265.49 320.446C261.795 321.843 258.098 323.236 254.402 324.628C252.91 325.191 251.418 325.753 249.926 326.315C249.185 326.594 248.444 326.873 247.681 327.161C245.411 328.017 243.141 328.873 240.871 329.729C231.1 333.414 221.327 337.093 211.55 340.761C210.467 341.168 209.384 341.575 208.268 341.994C205.533 343.019 202.796 344.04 200.058 345.058C199.298 345.343 198.539 345.628 197.756 345.922C192.783 347.761 192.783 347.761 190.55 347.761C190.994 348.548 191.438 349.334 191.896 350.145C193.551 353.083 195.202 356.024 196.849 358.967C197.561 360.237 198.275 361.505 198.991 362.773C200.023 364.602 201.049 366.435 202.074 368.269C203.001 369.919 203.001 369.919 203.946 371.602C207.489 378.579 208.734 384.639 206.968 392.281C204.297 400.223 199.053 405.412 191.675 409.261C183.228 410.613 175.87 410.541 168.55 405.761C162.1 399.732 157.799 392.579 153.613 384.886C153.037 383.855 152.462 382.824 151.869 381.761C147.724 374.282 147.724 374.282 146.55 370.761C145.789 371.171 145.027 371.581 144.242 372.003C134.305 377.189 125.797 380.415 114.55 377.761C111.312 376.381 108.258 374.841 105.179 373.136C102.004 371.448 102.004 371.448 98.5504 370.761C96.2637 371.688 96.2637 371.688 94.0504 373.136C87.8001 376.968 81.6939 377.813 74.4684 376.335C67.8106 374.195 62.6637 369.692 58.6129 364.074C55.7305 357.8 55.2794 349.982 57.2692 343.375C59.7069 338.214 62.9565 334.12 68.0934 331.429C71.1034 329.752 73.2813 328.37 75.5504 325.761C76.1184 321.891 75.9212 318.383 75.6676 314.484C75.4001 305.984 79.5378 300.16 85.0666 294.076C89.5712 289.878 94.8547 287.12 100.238 284.199C101.412 283.543 102.585 282.885 103.756 282.225C106.024 280.951 108.295 279.682 110.569 278.419C120.642 272.818 129.44 266.609 138.085 259.029C140.111 257.276 142.199 255.61 144.3 253.949C154.177 246.112 163.884 238.055 173.488 229.886C177.837 226.187 182.245 222.579 186.718 219.031C192.63 214.293 198.453 209.444 204.295 204.621C206.517 202.789 208.742 200.96 210.968 199.132C218.236 193.163 225.486 187.179 232.618 181.048C237.169 177.157 240.476 175.796 246.55 176.761ZM82.5504 341.761C81.2372 342.739 79.9249 343.719 78.6129 344.699C77.882 345.244 77.1511 345.789 76.3981 346.351C74.637 347.63 74.637 347.63 73.5504 348.761C73.0497 352.135 73.0497 352.135 73.5504 355.761C75.5406 358.42 75.5406 358.42 78.5504 359.761C83.5468 359.761 86.6061 357.673 90.5504 354.761C89.5964 352.967 88.6371 351.176 87.6754 349.386C86.8749 347.89 86.8749 347.89 86.0583 346.363C84.6684 343.708 84.6684 343.708 82.5504 341.761ZM172.55 354.761C166.61 358.226 166.61 358.226 160.55 361.761C161.035 362.609 161.52 363.458 162.019 364.332C162.339 364.892 162.659 365.452 162.989 366.03C163.703 367.279 164.419 368.528 165.135 369.776C167.025 373.071 168.894 376.374 170.722 379.703C171.245 380.645 171.245 380.645 171.779 381.606C172.755 383.367 173.723 385.132 174.691 386.898C176.472 389.641 177.709 391.187 180.55 392.761C184.326 392.695 186.625 392.542 189.55 390.074C190.919 386.91 190.32 385.097 189.55 381.761C188.335 378.988 188.335 378.988 186.75 376.285C185.902 374.784 185.902 374.784 185.037 373.253C184.443 372.225 183.85 371.196 183.238 370.136C182.656 369.1 182.074 368.063 181.474 366.996C178.751 362.221 176.491 358.702 172.55 354.761Z" fill="#4B2E78"/>
<path d="M364.089 256.471C365.15 256.464 366.21 256.457 367.303 256.45C370.809 256.431 374.314 256.428 377.82 256.425C380.26 256.419 382.7 256.412 385.14 256.405C390.255 256.393 395.37 256.39 400.485 256.391C407.032 256.391 413.579 256.364 420.126 256.329C425.166 256.307 430.206 256.303 435.246 256.304C437.659 256.302 440.073 256.293 442.486 256.277C445.866 256.258 449.244 256.263 452.624 256.276C453.616 256.264 454.608 256.253 455.63 256.241C462.915 256.307 468.263 257.88 473.793 262.726C474.331 263.377 474.87 264.028 475.425 264.699C475.98 265.347 476.534 265.996 477.105 266.664C480.018 270.891 480.803 274.591 480.841 279.682C480.854 280.849 480.866 282.017 480.88 283.221C480.882 284.473 480.884 285.725 480.886 287.015C480.896 288.955 480.896 288.955 480.907 290.933C480.918 293.664 480.922 296.395 480.921 299.126C480.921 302.623 480.948 306.118 480.983 309.614C481.01 312.956 481.009 316.298 481.011 319.64C481.026 320.894 481.04 322.149 481.055 323.441C481.049 324.606 481.043 325.771 481.036 326.971C481.039 327.995 481.042 329.019 481.045 330.074C480.421 333.463 479.208 334.641 476.55 336.761C474.55 337.293 474.55 337.293 472.55 337.261C471.56 337.277 471.56 337.277 470.55 337.293C467.644 336.521 466.458 335.051 464.55 332.761C464.045 330.34 464.045 330.34 464.036 327.613C464.023 326.589 464.01 325.564 463.996 324.508C464.004 322.857 464.004 322.857 464.011 321.172C464 320.035 463.988 318.898 463.976 317.727C463.94 314.093 463.931 310.459 463.925 306.824C463.909 303.193 463.887 299.562 463.854 295.931C463.834 293.672 463.825 291.413 463.827 289.153C463.82 288.126 463.813 287.098 463.806 286.039C463.805 285.138 463.803 284.238 463.802 283.31C463.511 280.365 463.01 278.345 461.55 275.761C457.217 273.013 452.211 273.48 447.25 273.503C446.321 273.499 445.392 273.496 444.434 273.492C441.369 273.483 438.303 273.489 435.238 273.496C433.105 273.494 430.971 273.492 428.838 273.49C424.37 273.487 419.901 273.491 415.432 273.501C409.706 273.512 403.979 273.505 398.253 273.493C393.848 273.486 389.444 273.489 385.04 273.494C382.928 273.495 380.817 273.493 378.705 273.489C375.754 273.484 372.803 273.491 369.851 273.503C368.979 273.499 368.108 273.494 367.209 273.49C361.105 273.478 361.105 273.478 355.55 275.761C352.802 280.094 353.269 285.101 353.292 290.062C353.288 290.991 353.285 291.92 353.281 292.877C353.272 295.943 353.278 299.008 353.285 302.074C353.283 304.207 353.282 306.34 353.279 308.474C353.276 312.942 353.28 317.411 353.29 321.88C353.301 327.606 353.295 333.333 353.283 339.059C353.275 343.464 353.278 347.868 353.283 352.272C353.284 354.384 353.282 356.495 353.278 358.607C353.273 361.558 353.28 364.509 353.292 367.461C353.288 368.332 353.284 369.204 353.279 370.103C353.267 376.207 353.267 376.207 355.55 381.761C359.883 384.51 364.89 384.043 369.851 384.02C370.78 384.024 371.709 384.027 372.666 384.031C375.732 384.04 378.797 384.034 381.863 384.027C383.996 384.028 386.129 384.03 388.263 384.033C392.731 384.036 397.2 384.031 401.669 384.022C407.395 384.011 413.122 384.017 418.848 384.029C423.253 384.036 427.657 384.034 432.061 384.029C434.173 384.028 436.284 384.029 438.396 384.034C441.347 384.039 444.298 384.031 447.25 384.02C448.121 384.024 448.993 384.028 449.892 384.032C454.183 384.002 457.699 383.897 461.55 381.761C464.805 376.722 463.908 369.771 463.941 363.978C464.117 357.388 464.117 357.388 466.339 354.172C468.661 352.691 469.826 352.219 472.55 352.261C473.54 352.246 473.54 352.246 474.55 352.23C477.486 353.01 478.645 354.422 480.55 356.761C481.068 359.567 481.068 359.567 481.082 362.777C481.089 364.531 481.089 364.531 481.097 366.32C481.082 367.538 481.066 368.756 481.05 370.011C481.074 371.815 481.074 371.815 481.097 373.656C481.061 381.951 480.106 387.704 474.586 394.004C473.935 394.542 473.284 395.081 472.613 395.636C471.965 396.191 471.316 396.745 470.648 397.316C464.977 401.224 459.682 401.058 453.012 401.052C451.951 401.059 450.891 401.065 449.798 401.072C446.292 401.091 442.787 401.095 439.281 401.097C436.841 401.104 434.401 401.11 431.961 401.117C426.846 401.129 421.731 401.133 416.616 401.132C410.069 401.132 403.522 401.159 396.975 401.193C391.935 401.216 386.895 401.22 381.855 401.219C379.441 401.221 377.028 401.23 374.615 401.245C371.235 401.265 367.857 401.259 364.477 401.247C362.989 401.264 362.989 401.264 361.471 401.281C354.186 401.215 348.838 399.643 343.308 394.797C342.5 393.82 342.5 393.82 341.675 392.824C341.121 392.175 340.567 391.527 339.996 390.859C336.088 385.187 336.254 379.893 336.26 373.223C336.253 372.162 336.246 371.101 336.24 370.009C336.221 366.503 336.217 362.997 336.214 359.492C336.208 357.052 336.201 354.612 336.194 352.172C336.182 347.057 336.179 341.942 336.18 336.827C336.18 330.28 336.153 323.733 336.118 317.186C336.096 312.146 336.092 307.106 336.093 302.066C336.091 299.652 336.082 297.239 336.066 294.826C336.047 291.446 336.053 288.068 336.065 284.688C336.053 283.696 336.042 282.704 336.031 281.682C336.096 274.397 337.669 269.049 342.515 263.519C343.166 262.98 343.817 262.442 344.488 261.886C345.136 261.332 345.785 260.778 346.453 260.207C352.124 256.299 357.419 256.465 364.089 256.471Z" fill="#4B2E78"/>
<path d="M364.089 8.47083C365.15 8.46411 366.21 8.45739 367.303 8.45047C370.809 8.43148 374.314 8.42757 377.82 8.42542C380.26 8.41899 382.7 8.41226 385.14 8.40524C390.255 8.39327 395.37 8.38956 400.485 8.39075C407.032 8.39095 413.579 8.36365 420.126 8.3292C425.166 8.30694 430.206 8.30291 435.246 8.30397C437.659 8.30161 440.073 8.29278 442.486 8.2773C445.866 8.25765 449.244 8.26348 452.624 8.27551C453.616 8.26427 454.608 8.25303 455.63 8.24146C462.915 8.30722 468.263 9.88016 473.793 14.7262C474.331 15.3772 474.87 16.0281 475.425 16.6989C475.98 17.3473 476.534 17.9956 477.105 18.6637C481.013 24.3353 480.847 29.6299 480.841 36.2997C480.848 37.3605 480.854 38.4212 480.861 39.5141C480.88 43.0198 480.884 46.5252 480.886 50.0309C480.893 52.4708 480.9 54.9107 480.907 57.3506C480.919 62.4658 480.922 67.581 480.921 72.6962C480.921 79.2432 480.948 85.7898 480.983 92.3367C481.005 97.3768 481.009 102.417 481.008 107.457C481.01 109.87 481.019 112.284 481.034 114.697C481.054 118.076 481.048 121.455 481.036 124.835C481.047 125.827 481.059 126.819 481.07 127.841C481.005 135.126 479.432 140.473 474.586 146.004C473.935 146.542 473.284 147.081 472.613 147.636C471.965 148.191 471.316 148.745 470.648 149.316C464.977 153.224 459.682 153.058 453.012 153.052C451.951 153.059 450.891 153.065 449.798 153.072C446.292 153.091 442.787 153.095 439.281 153.097C436.841 153.104 434.401 153.11 431.961 153.117C426.846 153.129 421.731 153.133 416.616 153.132C410.069 153.132 403.522 153.159 396.975 153.193C391.935 153.216 386.895 153.22 381.855 153.219C379.441 153.221 377.028 153.23 374.615 153.245C371.235 153.265 367.857 153.259 364.477 153.247C362.989 153.264 362.989 153.264 361.471 153.281C354.186 153.215 348.838 151.643 343.308 146.797C342.5 145.82 342.5 145.82 341.675 144.824C341.121 144.175 340.567 143.527 339.996 142.859C337.083 138.632 336.298 134.931 336.26 129.841C336.247 128.673 336.234 127.505 336.221 126.302C336.219 125.05 336.217 123.798 336.214 122.507C336.208 121.214 336.201 119.921 336.194 118.589C336.182 115.858 336.179 113.127 336.18 110.396C336.18 106.9 336.153 103.405 336.118 99.9088C336.091 96.5666 336.092 93.2247 336.089 89.8824C336.075 88.6282 336.061 87.374 336.046 86.0818C336.052 84.917 336.058 83.7522 336.065 82.5521C336.062 81.528 336.059 80.5038 336.056 79.4486C336.679 76.0598 337.893 74.882 340.55 72.7614C342.55 72.2301 342.55 72.2301 344.55 72.2614C345.54 72.2459 345.54 72.2459 346.55 72.2301C349.457 73.0022 350.642 74.4717 352.55 76.7614C353.056 79.1828 353.056 79.1828 353.065 81.9095C353.084 83.4465 353.084 83.4465 353.105 85.0145C353.1 86.1156 353.095 87.2167 353.089 88.3512C353.101 89.4879 353.113 90.6245 353.125 91.7957C353.161 95.4302 353.17 99.0642 353.175 102.699C353.192 106.33 353.214 109.96 353.247 113.591C353.267 115.851 353.276 118.11 353.274 120.369C353.281 121.397 353.288 122.425 353.295 123.484C353.296 124.384 353.298 125.285 353.299 126.213C353.589 129.157 354.091 131.178 355.55 133.761C359.883 136.51 364.89 136.043 369.851 136.02C370.78 136.024 371.709 136.027 372.666 136.031C375.732 136.04 378.797 136.034 381.863 136.027C383.996 136.028 386.129 136.03 388.263 136.033C392.731 136.036 397.2 136.031 401.669 136.022C407.395 136.011 413.122 136.017 418.848 136.029C423.253 136.036 427.657 136.034 432.061 136.029C434.173 136.028 436.284 136.029 438.396 136.034C441.347 136.039 444.298 136.031 447.25 136.02C448.121 136.024 448.993 136.028 449.892 136.032C455.996 136.045 455.996 136.045 461.55 133.761C464.299 129.428 463.832 124.422 463.809 119.461C463.813 118.532 463.816 117.602 463.82 116.645C463.829 113.58 463.823 110.514 463.816 107.449C463.817 105.316 463.819 103.182 463.822 101.049C463.825 96.5805 463.821 92.1119 463.811 87.6432C463.8 81.9166 463.806 76.1901 463.818 70.4635C463.826 66.0591 463.823 61.6549 463.818 57.2505C463.817 55.139 463.818 53.0275 463.823 50.916C463.828 47.9646 463.82 45.0135 463.809 42.0621C463.813 41.1903 463.817 40.3185 463.821 39.4202C463.834 33.316 463.834 33.316 461.55 27.7614C457.217 25.0129 452.211 25.4795 447.25 25.5026C446.321 25.4991 445.392 25.4956 444.434 25.4919C441.369 25.4832 438.303 25.489 435.238 25.4957C433.105 25.4944 430.971 25.4924 428.838 25.4899C424.37 25.487 419.901 25.4913 415.432 25.5006C409.706 25.512 403.979 25.5054 398.253 25.4935C393.848 25.4862 389.444 25.4885 385.04 25.4937C382.928 25.4951 380.817 25.4934 378.705 25.4888C375.754 25.4837 372.803 25.4914 369.851 25.5026C368.979 25.4985 368.108 25.4945 367.209 25.4903C362.918 25.5203 359.402 25.6257 355.55 27.7614C352.296 32.8003 353.193 39.7517 353.16 45.5446C352.983 52.1346 352.983 52.1346 350.761 55.3512C348.44 56.8317 347.275 57.3039 344.55 57.2614C343.56 57.2768 343.56 57.2768 342.55 57.2926C339.615 56.5128 338.456 55.1004 336.55 52.7614C336.033 49.9557 336.033 49.9557 336.019 46.7457C336.014 45.5765 336.009 44.4074 336.004 43.2028C336.027 41.3755 336.027 41.3755 336.05 39.5114C336.035 38.3087 336.019 37.106 336.004 35.8668C336.04 27.5714 336.995 21.8185 342.515 15.5192C343.166 14.9803 343.817 14.4415 344.488 13.8864C345.136 13.3321 345.785 12.7778 346.453 12.2067C352.124 8.29888 357.419 8.46477 364.089 8.47083Z" fill="#4B2E78"/>
<path d="M8.95276 80.2536C9.82755 80.2423 10.7023 80.231 11.6036 80.2194C13.0314 80.2315 13.0314 80.2315 14.4879 80.2439C15.4965 80.2369 16.505 80.2299 17.5441 80.2227C20.8798 80.2051 24.2147 80.2167 27.5504 80.2302C29.8668 80.2276 32.1832 80.2237 34.4996 80.2186C39.3552 80.2127 44.2105 80.2213 49.066 80.24C55.2941 80.2628 61.5214 80.2497 67.7494 80.2257C72.5329 80.2113 77.3162 80.2159 82.0997 80.2262C84.3963 80.2289 86.6929 80.2256 88.9894 80.2163C92.1976 80.2062 95.4048 80.2216 98.6129 80.2439C100.041 80.2318 100.041 80.2318 101.497 80.2194C102.809 80.2363 102.809 80.2363 104.148 80.2536C104.906 80.2551 105.664 80.2566 106.445 80.2581C109.495 80.9873 110.674 82.2837 112.55 84.7615C113.054 87.3665 113.054 87.3665 113.058 90.3787C113.07 91.5227 113.081 92.6668 113.093 93.8455C113.084 95.0965 113.076 96.3476 113.068 97.6365C113.073 98.9705 113.081 100.304 113.089 101.638C113.107 105.258 113.1 108.878 113.088 112.498C113.078 116.286 113.087 120.075 113.093 123.863C113.101 130.225 113.091 136.587 113.072 142.949C113.05 150.304 113.057 157.659 113.079 165.014C113.097 171.329 113.1 177.644 113.089 183.959C113.083 187.731 113.082 191.503 113.096 195.274C113.107 198.82 113.099 202.366 113.076 205.912C113.068 207.834 113.08 209.756 113.093 211.678C113.076 213.394 113.076 213.394 113.058 215.144C113.057 216.138 113.055 217.132 113.054 218.157C112.401 221.536 111.282 222.715 108.55 224.761C106.445 225.265 106.445 225.265 104.148 225.269C102.836 225.286 102.836 225.286 101.497 225.304C100.545 225.296 99.5936 225.287 98.6129 225.279C97.6044 225.286 96.5959 225.293 95.5568 225.3C92.221 225.318 88.8862 225.306 85.5504 225.293C83.234 225.295 80.9176 225.299 78.6012 225.304C73.7456 225.31 68.8903 225.302 64.0348 225.283C57.8068 225.26 51.5794 225.273 45.3514 225.297C40.5679 225.312 35.7846 225.307 31.0011 225.297C28.7046 225.294 26.408 225.297 24.1115 225.307C20.9032 225.317 17.6961 225.301 14.4879 225.279C13.5361 225.287 12.5843 225.295 11.6036 225.304C10.7289 225.292 9.85406 225.281 8.95276 225.269C8.19471 225.268 7.43666 225.266 6.65564 225.265C3.60599 224.536 2.42704 223.239 0.55042 220.761C0.0470549 218.157 0.047055 218.157 0.042485 215.144C0.0312057 214 0.0199264 212.856 0.00830528 211.678C0.0164022 210.426 0.0244991 209.175 0.0328414 207.886C0.0274199 206.553 0.020297 205.219 0.0116012 203.885C-0.0066316 200.265 0.000434796 196.645 0.0131175 193.025C0.0232456 189.237 0.0138524 185.448 0.00757285 181.66C0.000295854 175.298 0.0098854 168.936 0.0289352 162.574C0.0507042 155.219 0.0436524 147.864 0.0216291 140.509C0.00347644 134.194 0.00091696 127.879 0.0113847 121.564C0.0176205 117.792 0.0184527 114.02 0.00523826 110.249C-0.00631782 106.703 0.0017001 103.157 0.0248153 99.6113C0.0326264 97.6894 0.0207443 95.7674 0.00830528 93.8455C0.0195846 92.7014 0.0308639 91.5574 0.042485 90.3787C0.0439931 89.3847 0.0455012 88.3906 0.047055 87.3665C1.01133 82.3762 4.01753 80.2634 8.95276 80.2536ZM16.5504 96.7615C16.5504 133.721 16.5504 170.681 16.5504 208.761C42.9504 208.761 69.3504 208.761 96.5504 208.761C96.5504 171.801 96.5504 134.841 96.5504 96.7615C70.1504 96.7615 43.7504 96.7615 16.5504 96.7615Z" fill="#4B2E78"/>
<path d="M244.244 14.0412C258.599 25.7511 270.312 41.9324 272.55 60.7614C274.01 82.4818 271.223 102.717 256.571 119.67C243.364 134.136 226.916 144.147 206.996 145.074C186.305 145.666 167.74 141.653 152.113 127.386C137.37 113.247 128.74 96.7481 128.15 76.1261C127.913 55.7295 133.018 37.782 147.35 22.8381C172.902 -2.74399 214.467 -8.463 244.244 14.0412ZM166.55 28.7614C165.843 29.2616 165.135 29.7617 164.406 30.277C154.638 37.9066 147.498 50.6142 145.55 62.7614C144.004 79.4131 146.497 93.0771 156.55 106.761C157.051 107.469 157.551 108.177 158.066 108.906C165.696 118.674 178.403 125.814 190.55 127.761C207.202 129.308 220.866 126.815 234.55 116.761C235.258 116.261 235.966 115.761 236.695 115.246C246.463 107.616 253.603 94.9086 255.55 82.7614C257.097 66.1097 254.604 52.4457 244.55 38.7614C244.05 38.0537 243.55 37.346 243.035 36.6169C235.405 26.8486 222.698 19.7086 210.55 17.7614C193.899 16.2146 180.235 18.7076 166.55 28.7614Z" fill="#4B2E78"/>
<path d="M424.441 299.504C432.786 304.48 437.975 311.367 440.55 320.761C441.549 331.861 440.9 341.496 433.8 350.574C428.143 356.632 421.096 360.353 412.816 361.097C402.087 361.339 393.243 360.087 385.082 352.465C377.688 344.241 375.968 335.527 376.238 324.75C376.712 316.364 380.325 309.359 386.55 303.761C397.289 295.686 412.117 293.59 424.441 299.504ZM395.175 320.386C392.971 324.964 392.753 328.767 393.55 333.761C395.88 338.6 398.712 341.432 403.55 343.761C408.545 344.559 412.348 344.341 416.925 342.136C420.509 338.894 423.146 336.297 423.933 331.363C424.189 325.679 423.487 322.112 419.55 317.761C415.2 313.825 411.633 313.123 405.949 313.379C401.015 314.166 398.418 316.802 395.175 320.386Z" fill="#4B2E78"/>
<path d="M186.19 40.2917C191.226 41.2937 195.665 43.7952 200.199 46.1246C201.839 46.9463 201.839 46.9463 203.513 47.7846C205.815 48.9414 208.112 50.1059 210.406 51.2777C213.926 53.074 217.457 54.8443 220.992 56.611C223.228 57.739 225.464 58.8685 227.699 59.9996C228.757 60.531 229.815 61.0623 230.906 61.6098C231.881 62.1101 232.856 62.6104 233.86 63.1258C234.72 63.5633 235.58 64.0008 236.466 64.4515C238.55 65.7613 238.55 65.7613 240.55 68.7613C241.087 74.3932 241.087 74.3932 240.55 76.7613C237.919 79.7394 235.344 81.6223 231.817 83.4186C230.882 83.8988 229.947 84.379 228.984 84.8737C227.98 85.378 226.976 85.8824 225.941 86.402C224.9 86.929 223.859 87.4561 222.787 87.9991C220.587 89.1093 218.385 90.2151 216.18 91.317C212.818 93.0025 209.469 94.7132 206.121 96.4254C203.978 97.5025 201.835 98.5781 199.691 99.652C198.695 100.164 197.699 100.677 196.673 101.205C191.038 103.986 186.855 105.771 180.55 104.761C177.886 102.705 176.699 101.518 176.042 98.1813C176.039 97.2074 176.036 96.2335 176.033 95.2301C176.02 94.1221 176.008 93.0142 175.995 91.8727C176.003 90.6809 176.011 89.4892 176.019 88.2613C176.015 87.0335 176.012 85.8057 176.008 84.5406C176.005 81.9449 176.012 79.3492 176.029 76.7535C176.05 72.7763 176.029 68.801 176.004 64.8238C176.006 62.303 176.011 59.7822 176.019 57.2613C176.011 56.0696 176.003 54.8779 175.995 53.65C176.007 52.5421 176.02 51.4341 176.033 50.2926C176.036 49.3187 176.039 48.3448 176.042 47.3414C177.128 41.8254 180.785 39.9967 186.19 40.2917ZM192.55 62.7613C192.55 69.3613 192.55 75.9613 192.55 82.7613C197.539 81.1256 197.539 81.1256 202.199 79.0348C202.811 78.7254 203.423 78.416 204.054 78.0973C204.672 77.7802 205.289 77.4631 205.925 77.1363C206.566 76.8115 207.207 76.4867 207.867 76.152C209.43 75.3588 210.99 74.5606 212.55 73.7613C212.55 73.1013 212.55 72.4413 212.55 71.7613C209.595 70.2549 206.636 68.7573 203.675 67.2613C202.834 66.8321 201.992 66.4028 201.125 65.9606C199.916 65.3515 199.916 65.3515 198.683 64.7301C197.94 64.353 197.196 63.976 196.43 63.5875C194.587 62.6272 194.587 62.6272 192.55 62.7613Z" fill="#4B2E78"/>
<path d="M423.113 40.3865C424.345 40.362 425.576 40.3375 426.845 40.3123C428.619 40.3065 428.619 40.3065 430.429 40.3005C431.508 40.2923 432.586 40.2841 433.697 40.2756C437.213 40.8743 438.373 41.9963 440.55 44.7615C441.082 46.7615 441.082 46.7615 441.05 48.7615C441.066 49.7515 441.066 49.7515 441.082 50.7615C440.25 53.8933 439.235 54.9067 436.55 56.7615C433.243 57.3473 429.966 57.3672 426.613 57.3865C418.805 57.2718 418.805 57.2718 411.55 59.7615C409.197 63.7627 409.012 68.2208 408.55 72.7615C409.37 72.7151 410.19 72.6687 411.035 72.6208C412.112 72.5848 413.19 72.5487 414.3 72.5115C415.901 72.4419 415.901 72.4419 417.535 72.3708C420.55 72.7615 420.55 72.7615 422.91 74.5271C424.641 76.8844 425.095 77.8862 425.05 80.7615C425.061 81.4215 425.071 82.0815 425.082 82.7615C424.298 85.7102 422.915 86.8649 420.55 88.7615C417.535 89.1521 417.535 89.1521 414.3 89.0115C413.223 88.9754 412.145 88.9393 411.035 88.9021C410.215 88.8557 409.395 88.8093 408.55 88.7615C408.571 89.5887 408.592 90.416 408.614 91.2683C408.697 95.0159 408.749 98.7633 408.8 102.511C408.834 103.813 408.867 105.115 408.902 106.457C408.915 107.707 408.928 108.958 408.941 110.246C408.962 111.398 408.983 112.55 409.005 113.737C408.456 117.393 407.434 118.529 404.55 120.761C402.55 121.293 402.55 121.293 400.55 121.261C399.89 121.272 399.23 121.282 398.55 121.293C395.594 120.508 394.451 119.136 392.55 116.761C392.096 113.737 392.096 113.737 392.16 110.246C392.173 108.995 392.186 107.745 392.199 106.457C392.232 105.155 392.266 103.853 392.3 102.511C392.318 101.194 392.337 99.8766 392.355 98.5193C392.402 95.266 392.468 92.0141 392.55 88.7615C391.731 88.8079 390.911 88.8543 390.066 88.9021C388.45 88.9562 388.45 88.9562 386.8 89.0115C385.733 89.0579 384.666 89.1043 383.566 89.1521C379.882 88.6749 378.798 87.6482 376.55 84.7615C376.019 82.7615 376.019 82.7615 376.05 80.7615C376.04 80.1015 376.03 79.4415 376.019 78.7615C376.811 75.7797 378.097 74.5974 380.55 72.7615C383.566 72.3708 383.566 72.3708 386.8 72.5115C387.878 72.5476 388.956 72.5837 390.066 72.6208C391.296 72.6905 391.296 72.6905 392.55 72.7615C392.504 71.7715 392.458 70.7815 392.41 69.7615C391.93 55.3991 391.93 55.3991 396.55 49.7615C404.775 41.1423 411.5 40.3987 423.113 40.3865Z" fill="#4B2E78"/>
<path d="M375.425 217.887C377.2 220.845 377.432 223.34 377.55 226.762C376.675 229.512 376.675 229.512 374.55 231.762C367.458 234.519 360.163 236.062 352.713 237.551C350.749 237.947 348.79 238.361 346.83 238.775C330.346 242.102 330.346 242.102 323.55 240.762C319.785 237.646 319.785 237.646 319.019 234.762C319.029 234.102 319.04 233.442 319.05 232.762C319.035 231.772 319.035 231.772 319.019 230.762C319.794 227.844 321.257 226.696 323.55 224.762C326.337 223.804 326.337 223.804 329.539 223.164C330.713 222.921 331.888 222.678 333.099 222.428C334.962 222.067 334.962 222.067 336.863 221.699C338.126 221.444 339.39 221.188 340.692 220.925C343.189 220.422 345.687 219.924 348.187 219.432C350.963 218.879 353.726 218.295 356.488 217.676C357.767 217.395 359.045 217.114 360.363 216.824C361.421 216.588 362.48 216.352 363.57 216.109C367.688 215.629 371.802 215.713 375.425 217.887Z" fill="#4B2E78"/>
<path d="M340.55 168.761C343.05 170.261 343.05 170.261 344.55 172.761C345.324 178.18 345.324 178.18 344.55 180.761C340.266 185.865 334.656 189.645 329.363 193.636C328.468 194.318 327.572 195 326.65 195.703C323.963 197.74 321.261 199.756 318.55 201.761C317.643 202.436 316.735 203.11 315.799 203.805C314.487 204.756 314.487 204.756 313.148 205.726C311.978 206.579 311.978 206.579 310.785 207.449C307.059 209.637 304.774 209.562 300.55 208.761C298.05 207.261 298.05 207.261 296.55 204.761C295.776 199.343 295.776 199.343 296.55 196.761C300.834 191.658 306.444 187.878 311.738 183.886C312.633 183.205 313.528 182.523 314.451 181.82C317.138 179.783 319.839 177.767 322.55 175.761C323.912 174.75 323.912 174.75 325.301 173.718C326.614 172.767 326.614 172.767 327.953 171.797C329.122 170.944 329.122 170.944 330.316 170.074C334.041 167.886 336.327 167.96 340.55 168.761Z" fill="#4B2E78"/>
<path d="M308.55 128.761C311.05 130.261 311.05 130.261 312.55 132.761C313.421 139.218 312.078 142.285 308.18 147.41C307.56 148.186 306.94 148.962 306.3 149.761C305.672 150.577 305.044 151.393 304.397 152.234C303.1 153.919 301.795 155.598 300.484 157.272C298.627 159.663 296.815 162.081 295.019 164.519C294.475 165.257 293.932 165.994 293.372 166.754C292.342 168.152 291.312 169.55 290.284 170.949C286.776 175.649 286.776 175.649 284.55 176.761C277.498 177.33 277.498 177.33 274.05 175.261C271.948 171.757 271.787 168.691 272.55 164.761C274.259 161.461 276.485 158.658 278.8 155.761C279.428 154.946 280.057 154.13 280.704 153.289C282.001 151.604 283.306 149.925 284.617 148.251C286.474 145.86 288.286 143.441 290.082 141.004C290.625 140.266 291.169 139.529 291.729 138.769C292.759 137.371 293.788 135.973 294.817 134.574C298.908 129.093 301.66 127.822 308.55 128.761Z" fill="#4B2E78"/>
<path d="M45.5504 176.23C46.4231 176.227 47.2958 176.223 48.1949 176.219C50.0374 176.216 51.8799 176.223 53.7223 176.24C56.5409 176.262 59.3569 176.24 62.1754 176.215C63.9671 176.217 65.7588 176.222 67.5504 176.23C68.3922 176.222 69.2339 176.214 70.1012 176.206C75.9376 176.299 75.9376 176.299 79.0797 178.67C80.6719 180.934 81.0932 182.023 81.0504 184.762C81.0607 185.422 81.071 186.082 81.0817 186.762C80.2705 189.815 79.0806 190.853 76.5504 192.762C73.5531 193.363 70.5993 193.322 67.5504 193.293C66.6777 193.297 65.805 193.301 64.9059 193.304C63.0634 193.307 61.2209 193.3 59.3785 193.283C56.56 193.262 53.7439 193.283 50.9254 193.308C49.1337 193.306 47.3421 193.301 45.5504 193.293C44.7087 193.301 43.8669 193.309 42.9996 193.317C37.1633 193.224 37.1633 193.224 34.0211 190.853C32.429 188.589 32.0076 187.501 32.0504 184.762C32.0349 183.772 32.0349 183.772 32.0192 182.762C33.8598 175.832 39.6007 176.173 45.5504 176.23Z" fill="#4B2E78"/>
<path d="M45.5504 144.23C46.4231 144.227 47.2958 144.223 48.1949 144.219C50.0374 144.216 51.8799 144.223 53.7223 144.24C56.5409 144.262 59.3569 144.24 62.1754 144.215C63.9671 144.217 65.7588 144.222 67.5504 144.23C68.3922 144.222 69.2339 144.214 70.1012 144.206C75.9376 144.299 75.9376 144.299 79.0797 146.67C80.6719 148.934 81.0932 150.023 81.0504 152.762C81.0607 153.422 81.071 154.082 81.0817 154.762C80.2705 157.815 79.0806 158.853 76.5504 160.762C73.5531 161.363 70.5993 161.322 67.5504 161.293C66.6777 161.297 65.805 161.301 64.9059 161.304C63.0634 161.307 61.2209 161.3 59.3785 161.283C56.56 161.262 53.7439 161.283 50.9254 161.308C49.1337 161.306 47.3421 161.301 45.5504 161.293C44.7087 161.301 43.8669 161.309 42.9996 161.317C37.1633 161.224 37.1633 161.224 34.0211 158.853C32.429 156.589 32.0076 155.501 32.0504 152.762C32.0349 151.772 32.0349 151.772 32.0192 150.762C33.8598 143.832 39.6007 144.173 45.5504 144.23Z" fill="#4B2E78"/>
<path d="M58.0504 112.23C59.1023 112.225 60.1542 112.22 61.2379 112.215C62.331 112.23 63.4242 112.246 64.5504 112.261C66.1901 112.238 66.1901 112.238 67.8629 112.215C68.9148 112.22 69.9667 112.225 71.0504 112.23C72.489 112.237 72.489 112.237 73.9567 112.244C77.2634 112.904 78.4595 114.173 80.5504 116.761C81.0817 118.761 81.0817 118.761 81.0504 120.761C81.0607 121.421 81.071 122.081 81.0817 122.761C80.3066 125.679 78.8594 126.855 76.5504 128.761C73.9567 129.279 73.9567 129.279 71.0504 129.293C69.9985 129.298 68.9467 129.303 67.8629 129.308C66.7698 129.293 65.6767 129.277 64.5504 129.261C62.9107 129.285 62.9107 129.285 61.2379 129.308C60.186 129.303 59.1342 129.298 58.0504 129.293C57.0914 129.288 56.1323 129.284 55.1442 129.279C51.8374 128.619 50.6413 127.35 48.5504 124.761C48.0192 122.761 48.0192 122.761 48.0504 120.761C48.0349 119.771 48.0349 119.771 48.0192 118.761C49.398 113.571 53.1095 112.253 58.0504 112.23Z" fill="#4B2E78"/>
</svg>
