<svg width="452" height="464" viewBox="0 0 452 464" fill="none" xmlns="http://www.w3.org/2000/svg">
<path d="M33.456 0.247699C34.7884 0.240902 34.7884 0.240902 36.1478 0.233968C39.1185 0.221328 42.0891 0.222945 45.0598 0.224597C47.1922 0.218612 49.3247 0.211806 51.4571 0.204242C57.2465 0.186576 63.0358 0.181886 68.8252 0.18061C72.4439 0.179188 76.0625 0.174918 79.6812 0.169616C92.3103 0.151113 104.939 0.142946 117.569 0.144519C129.333 0.14572 141.097 0.124624 152.861 0.0930318C162.967 0.0668604 173.073 0.0561522 183.18 0.0574299C189.213 0.0579393 195.246 0.0522671 201.279 0.0310738C206.956 0.0116773 212.632 0.0115769 218.309 0.0261071C220.388 0.0281946 222.467 0.0234979 224.547 0.0113862C237.556 -0.0594671 248.663 -0.0874119 258.701 9.31981C265.256 17.2079 267.634 25.7237 267.684 35.7601C267.689 36.479 267.694 37.1979 267.699 37.9385C267.714 40.3414 267.723 42.7443 267.731 45.1472C267.741 46.8721 267.751 48.5969 267.761 50.3218C267.788 55.0011 267.809 59.6804 267.829 64.3597C267.851 69.2511 267.878 74.1425 267.905 79.0338C267.955 88.2949 268 97.556 268.043 106.817C268.092 117.361 268.147 127.905 268.203 138.449C268.317 160.138 268.423 181.826 268.526 203.515C271.826 203.515 275.126 203.515 278.526 203.515C279.361 201.69 279.361 201.69 280.213 199.828C283.737 192.854 289.928 187.385 297.42 184.882C300.024 184.428 302.508 184.383 305.151 184.39C306.112 184.388 307.074 184.385 308.065 184.382C310.526 184.515 310.526 184.515 312.526 185.515C312.608 184.814 312.691 184.113 312.776 183.39C314.499 176.783 319.134 172.376 324.526 168.515C330.553 165.217 337.097 163.706 343.92 164.953C346.233 165.646 348.343 166.485 350.526 167.515C351.131 167.799 351.737 168.082 352.362 168.374C358.163 171.787 361.046 177.601 364.273 183.305C365.711 185.842 367.177 188.361 368.643 190.882C384.738 218.752 393.957 243.379 393.42 276.05C393.267 292.279 394.105 304.702 404.532 318.052C405.526 319.515 405.526 319.515 405.526 321.515C406.351 321.185 407.176 320.855 408.026 320.515C413.71 318.891 417.496 318.673 422.889 320.91C427.818 323.886 430.069 328.658 432.776 333.578C433.899 335.565 435.023 337.552 436.147 339.539C436.706 340.539 437.265 341.539 437.842 342.569C439.436 345.358 441.101 348.085 442.811 350.804C451.839 365.288 451.839 365.288 451.303 373.191C449.333 379.081 445.866 382.359 440.608 385.414C439.754 385.916 439.754 385.916 438.884 386.429C437.105 387.472 435.317 388.495 433.526 389.515C432.438 390.146 431.351 390.776 430.23 391.426C426.9 393.347 423.558 395.246 420.213 397.14C417.74 398.546 415.267 399.954 412.795 401.363C412.18 401.713 411.564 402.064 410.93 402.425C405.064 405.771 399.229 409.167 393.401 412.578C381.902 419.305 370.365 425.966 358.821 432.615C354.416 435.155 350.016 437.701 345.615 440.248C342.376 442.118 339.131 443.979 335.885 445.839C331.614 448.292 327.381 450.799 323.166 453.347C322.143 453.954 321.12 454.561 320.065 455.187C318.148 456.324 316.241 457.479 314.347 458.656C308.249 462.233 302.61 464.1 295.526 462.515C290.662 459.904 288.334 457.215 285.686 452.421C285.356 451.834 285.026 451.247 284.686 450.641C283.64 448.773 282.613 446.895 281.588 445.015C280.905 443.785 280.221 442.556 279.535 441.328C278.519 439.505 277.504 437.682 276.497 435.855C273.718 430.819 270.817 425.864 267.871 420.923C265.491 416.664 265.198 413.35 265.526 408.515C267.272 403.826 269.374 401.283 273.526 398.515C275.176 397.855 276.826 397.195 278.526 396.515C275.226 390.245 271.926 383.975 268.526 377.515C268.423 379.949 268.319 382.383 268.213 384.89C267.557 396.267 265.384 405.367 256.604 413.238C248.324 419.769 240.479 421.667 230.019 421.656C229.164 421.659 228.31 421.662 227.429 421.665C224.566 421.673 221.703 421.675 218.839 421.676C216.786 421.681 214.732 421.686 212.679 421.691C207.1 421.704 201.522 421.711 195.943 421.715C192.456 421.718 188.969 421.722 185.482 421.727C174.569 421.741 163.655 421.75 152.741 421.754C140.151 421.759 127.561 421.776 114.971 421.805C105.234 421.827 95.497 421.837 85.7601 421.838C79.9471 421.839 74.1342 421.845 68.3213 421.863C62.8506 421.879 57.3802 421.882 51.9096 421.873C49.9061 421.872 47.9027 421.876 45.8992 421.886C32.2487 421.95 20.4396 421.777 9.52565 412.515C0.724406 403.233 0.0835825 393.782 0.137965 381.491C0.133789 379.956 0.128311 378.421 0.121646 376.886C0.107207 372.68 0.11143 368.475 0.118812 364.269C0.123545 359.728 0.111033 355.187 0.100795 350.647C0.0836047 341.756 0.0827675 332.865 0.088008 323.975C0.0920504 316.748 0.0906032 309.521 0.0852576 302.295C0.0845092 301.266 0.0837628 300.237 0.0829917 299.177C0.0814602 297.087 0.079921 294.998 0.0783759 292.908C0.0646501 273.312 0.0700892 253.716 0.0815611 234.12C0.0914945 216.195 0.0785536 198.27 0.0546294 180.345C0.0302442 161.935 0.0206287 143.526 0.0272818 125.117C0.0307752 114.783 0.0285306 104.449 0.0110274 94.1151C-0.00368729 85.3184 -0.00433908 76.522 0.0130988 67.7254C0.021617 63.2381 0.0237397 58.7512 0.00844865 54.264C-0.00538383 50.1539 -0.000654578 46.0442 0.0186873 41.9341C0.022452 40.4497 0.0195141 38.9652 0.00907808 37.4808C-0.0672346 25.7923 1.62385 17.9309 9.66627 9.30419C16.8508 2.3913 23.575 0.210555 33.456 0.247699ZM20.7756 16.7026C20.2446 17.0674 19.7135 17.4322 19.1663 17.8081C10.4305 26.8975 13.5256 32.8642 13.5256 46.5151C93.0556 46.5151 172.586 46.5151 254.526 46.5151C255.489 31.2656 255.489 31.2656 249.065 18.9409C242.123 12.7923 235.167 12.3632 226.189 12.3814C225.365 12.3791 224.541 12.3769 223.691 12.3745C220.937 12.3682 218.183 12.369 215.428 12.3699C213.45 12.3669 211.472 12.3635 209.494 12.3597C204.127 12.3509 198.759 12.3485 193.391 12.3479C190.036 12.3472 186.682 12.345 183.327 12.3424C171.621 12.3331 159.915 12.329 148.209 12.3298C137.301 12.3304 126.394 12.3199 115.486 12.3041C106.117 12.291 96.7482 12.2856 87.379 12.2863C81.7852 12.2865 76.1915 12.2837 70.5977 12.2731C65.3364 12.2634 60.0751 12.2633 54.8138 12.2706C52.8853 12.2717 50.9569 12.2693 49.0284 12.2633C46.3908 12.2555 43.7536 12.2602 41.116 12.2679C40.3574 12.2627 39.5989 12.2576 38.8173 12.2523C32.5946 12.2923 25.958 12.9441 20.7756 16.7026ZM13.5256 59.5151C13.5256 156.535 13.5256 253.555 13.5256 353.515C86.1256 353.515 158.726 353.515 233.526 353.515C229.737 350.484 226.971 348.561 222.745 346.494C221.607 345.933 220.468 345.372 219.296 344.794C218.693 344.501 218.09 344.207 217.47 343.905C215.565 342.977 213.666 342.04 211.767 341.101C206.37 338.435 200.966 335.783 195.559 333.138C192.242 331.515 188.931 329.881 185.622 328.242C184.368 327.623 183.112 327.009 181.854 326.398C164.495 317.969 164.495 317.969 161.151 310.39C160.854 309.748 160.558 309.106 160.252 308.445C157.573 301.329 157.925 294.663 160.565 287.617C163.338 281.551 167.464 278.139 173.459 275.425C180.026 273.476 186.772 274.104 193.526 274.515C194.716 274.587 195.907 274.659 197.133 274.733C205.602 275.264 214.065 275.866 222.526 276.515C222.056 275.698 221.586 274.881 221.102 274.039C217.243 267.321 213.438 260.575 209.667 253.808C202.714 241.338 195.584 228.983 188.367 216.664C185.03 210.957 181.712 205.238 178.401 199.515C177.459 197.895 177.459 197.895 176.499 196.242C174.823 193.343 173.168 190.433 171.526 187.515C171.097 186.769 170.669 186.024 170.228 185.255C166.289 178.021 166.158 169.985 168.151 162.015C170.827 155.898 175.943 151.219 181.916 148.378C189.434 145.766 196.58 145.929 203.838 149.265C210.979 152.921 214.56 159.505 218.401 166.203C218.955 167.155 219.51 168.108 220.081 169.089C221.904 172.226 223.715 175.37 225.526 178.515C226.838 180.785 228.15 183.054 229.463 185.324C231.987 189.689 234.504 194.058 237.018 198.429C240.495 204.473 244.006 210.496 247.526 216.515C248.309 215.731 249.093 214.948 249.901 214.14C251.442 212.598 252.984 211.057 254.526 209.515C254.825 206.805 254.825 206.805 254.766 203.58C254.769 202.318 254.772 201.056 254.775 199.755C254.767 198.343 254.76 196.931 254.753 195.519C254.752 194.016 254.752 192.514 254.753 191.012C254.754 186.98 254.742 182.949 254.728 178.917C254.717 175.137 254.716 171.358 254.715 167.578C254.704 156.515 254.676 145.453 254.651 134.39C254.589 97.327 254.589 97.327 254.526 59.5151C174.996 59.5151 95.4656 59.5151 13.5256 59.5151ZM182.526 162.515C179.307 166.035 179.081 169.371 179.146 173.957C179.881 178.905 182.583 182.864 185.151 187.078C185.736 188.074 186.321 189.071 186.925 190.098C188.159 192.197 189.402 194.291 190.653 196.38C193.03 200.36 195.358 204.367 197.685 208.376C199.427 211.372 201.177 214.364 202.928 217.355C206.631 223.686 210.301 230.036 213.963 236.39C214.577 237.455 215.191 238.52 215.823 239.617C217.724 242.916 219.625 246.216 221.526 249.515C223.943 253.711 226.362 257.907 228.781 262.103C229.752 263.786 230.722 265.47 231.691 267.153C232.281 268.176 232.871 269.199 233.479 270.253C233.996 271.151 234.513 272.049 235.046 272.973C236.07 274.733 237.123 276.475 238.198 278.204C240.244 281.766 239.731 284.475 239.526 288.515C233.724 289.416 228.503 289.492 222.67 288.957C221.847 288.889 221.023 288.821 220.175 288.75C217.562 288.534 214.95 288.307 212.338 288.078C192.606 284.88 192.606 284.88 174.526 289.515C171.243 292.798 170.684 295.931 170.526 300.515C173.393 308.948 180.621 312.292 188.129 316.018C189.779 316.821 189.779 316.821 191.463 317.64C192.611 318.207 193.759 318.774 194.942 319.358C201.484 322.579 208.059 325.728 214.653 328.844C233.492 337.756 250.857 347.936 268.013 359.808C269.5 360.818 271.009 361.799 272.56 362.709C278.432 366.29 280.91 371.841 283.963 377.828C284.504 378.854 285.045 379.881 285.602 380.939C286.925 383.457 288.232 385.982 289.526 388.515C293.304 387.936 296.007 386.876 299.28 384.917C300.202 384.372 301.124 383.826 302.074 383.263C303.069 382.666 304.063 382.068 305.088 381.453C307.255 380.169 309.423 378.886 311.592 377.605C312.727 376.933 313.861 376.261 315.03 375.569C320.241 372.497 325.501 369.51 330.759 366.52C343.05 359.529 355.282 352.439 367.485 345.294C372.995 342.07 378.511 338.856 384.026 335.64C386.057 334.455 388.088 333.27 390.119 332.085C391.588 331.229 393.057 330.372 394.526 329.515C393.87 326.27 392.687 323.763 391.057 320.89C390.324 319.583 390.324 319.583 389.576 318.25C389.065 317.347 388.553 316.445 388.026 315.515C387.011 313.726 386 311.934 384.994 310.14C384.545 309.349 384.096 308.557 383.633 307.742C381.428 303.309 381.372 299.357 381.28 294.425C381.248 292.997 381.217 291.568 381.185 290.139C381.169 289.394 381.154 288.649 381.138 287.882C380.356 251.77 374.005 225.506 355.205 194.321C354.084 192.448 352.981 190.564 351.897 188.67C351.384 187.781 350.871 186.892 350.342 185.976C349.894 185.188 349.446 184.399 348.985 183.587C346.711 180.358 344.466 178.808 340.713 177.64C335.336 177.429 331.808 179.511 327.651 182.765C324.436 186.925 324.417 190.636 324.713 195.765C324.526 198.515 324.526 198.515 322.901 200.39C319.784 201.867 317.949 201.994 314.526 201.515C313.556 200.855 312.587 200.195 311.588 199.515C307.801 197.042 305.977 196.89 301.526 197.515C296.701 199.375 293.779 201.843 291.526 206.515C291.179 209.623 291.151 212.648 291.127 215.773C290.526 218.515 290.526 218.515 288.135 220.386C284.908 221.782 283.82 221.692 280.526 220.515C279.412 219.814 278.298 219.113 277.151 218.39C274.315 216.704 273.466 216.515 269.963 216.515C265.127 217.922 261.926 219.934 258.588 223.703C257.028 227.833 257.424 231.335 258.526 235.515C260.587 239.742 263.068 243.673 265.588 247.64C273.803 260.588 273.803 260.588 272.526 266.515C269.526 268.515 269.526 268.515 266.217 268.769C260.486 266.822 259.114 262.657 256.463 257.453C255.326 255.332 254.186 253.212 253.045 251.093C252.465 249.999 251.884 248.906 251.286 247.779C248.535 242.678 245.595 237.694 242.651 232.703C241.474 230.694 240.298 228.685 239.123 226.675C238.533 225.666 237.943 224.657 237.335 223.617C234.235 218.302 231.161 212.971 228.088 207.64C227.473 206.574 226.858 205.508 226.224 204.409C223.292 199.325 220.365 194.239 217.453 189.144C216.43 187.356 215.406 185.569 214.381 183.782C213.096 181.541 211.814 179.298 210.536 177.053C204.343 165.239 204.343 165.239 193.526 158.515C189.204 158.515 186.137 160.228 182.526 162.515ZM410.143 334.867C409.236 335.381 408.329 335.895 407.394 336.425C405.912 337.274 405.912 337.274 404.401 338.14C403.371 338.726 402.341 339.312 401.28 339.916C393.109 344.579 384.981 349.315 376.863 354.07C369.114 358.605 361.327 363.071 353.526 367.515C343.816 373.048 334.139 378.634 324.494 384.279C315.828 389.348 307.133 394.366 298.427 399.367C295.456 401.077 292.49 402.794 289.526 404.515C288.555 405.076 287.584 405.637 286.583 406.214C285.675 406.747 284.766 407.279 283.83 407.828C283.023 408.298 282.216 408.769 281.385 409.253C279.385 410.39 279.385 410.39 278.526 412.515C279.863 415.236 281.264 417.83 282.776 420.453C283.221 421.24 283.667 422.028 284.127 422.839C285.583 425.403 287.053 427.96 288.526 430.515C289.04 431.409 289.554 432.303 290.083 433.224C293.214 438.664 296.362 444.094 299.526 449.515C303.497 448.92 306.4 447.682 309.885 445.707C310.909 445.13 311.933 444.553 312.988 443.959C314.073 443.338 315.158 442.717 316.276 442.078C317.402 441.439 318.529 440.801 319.69 440.144C327.168 435.897 334.598 431.573 341.994 427.187C347.624 423.855 353.295 420.594 358.963 417.328C360.07 416.69 361.178 416.052 362.318 415.394C364.589 414.086 366.86 412.778 369.131 411.471C375.671 407.703 382.208 403.93 388.745 400.157C393.739 397.274 398.734 394.394 403.734 391.523C420.776 381.764 420.776 381.764 437.526 371.515C436.937 367.479 435.651 364.626 433.576 361.128C432.674 359.596 432.674 359.596 431.754 358.033C431.122 356.975 430.49 355.917 429.838 354.828C429.225 353.789 428.612 352.751 427.981 351.681C426.763 349.621 425.539 347.563 424.309 345.51C423.125 343.521 421.955 341.523 420.801 339.517C420.27 338.602 419.74 337.688 419.194 336.746C418.726 335.929 418.258 335.112 417.776 334.27C417.364 333.691 416.951 333.112 416.526 332.515C413.839 332.515 412.479 333.537 410.143 334.867ZM13.5256 366.515C11.0523 392.13 11.0523 392.13 18.5256 402.515C24.2634 408.106 30.3441 408.813 38.0898 408.776C39.3631 408.782 39.3631 408.782 40.6621 408.787C43.4993 408.798 46.3364 408.794 49.1736 408.79C51.2107 408.794 53.2479 408.799 55.285 408.805C60.814 408.819 66.3428 408.819 71.8718 408.817C76.4891 408.816 81.1064 408.821 85.7237 408.825C96.6178 408.836 107.512 408.837 118.406 408.831C129.641 408.825 140.875 408.837 152.11 408.858C161.759 408.876 171.409 408.882 181.058 408.879C186.82 408.877 192.581 408.88 198.342 408.893C203.761 408.906 209.18 408.904 214.599 408.891C216.586 408.889 218.572 408.891 220.559 408.9C223.275 408.91 225.991 408.902 228.708 408.889C229.489 408.897 230.271 408.904 231.077 408.912C237.261 408.851 242.85 407.702 247.768 403.683C248.307 403.03 248.845 402.376 249.401 401.703C250.232 400.734 250.232 400.734 251.08 399.746C257.614 389.662 254.526 378.524 254.526 366.515C174.996 366.515 95.4656 366.515 13.5256 366.515Z" fill="#4B2E78"/>
<path d="M174.213 93.7029C183.479 101.594 191.939 113.114 193.526 125.515C192.205 128.743 191.395 130.149 188.151 131.515C184.488 131.515 183.281 130.988 180.526 128.515C179.604 126.472 179.604 126.472 178.713 124.015C174.491 112.445 166.35 104.095 155.651 98.2654C142.891 92.4381 129.858 91.6366 116.561 96.2575C104.204 101.378 95.4735 109.527 89.5256 121.515C84.0198 134.871 84.436 147.706 89.5217 161.148C94.8182 172.841 104.244 181.622 116.049 186.574C126.201 190.099 136.13 190.569 146.553 187.902C149.423 187.339 151.742 187.701 154.526 188.515C156.526 190.515 156.526 190.515 156.838 193.953C156.526 197.515 156.526 197.515 155.334 199.133C147.811 204.884 135.434 204.295 126.526 203.515C109.157 200.995 95.0634 192.722 83.7756 179.265C73.946 165.912 69.3695 148.99 71.8186 132.549C75.0459 114.625 84.2833 100.431 98.7248 89.3357C122.661 73.779 152.112 76.7489 174.213 93.7029Z" fill="#4B2E78"/>
<path d="M162.526 118.515C164.463 119.64 164.463 119.64 165.526 121.515C165.896 125.012 165.958 126.868 163.978 129.831C163.253 130.564 162.528 131.297 161.781 132.052C160.963 132.892 160.145 133.733 159.302 134.599C158.405 135.486 157.508 136.374 156.584 137.289C155.211 138.674 155.211 138.674 153.81 140.088C151.871 142.039 149.923 143.979 147.966 145.912C145.464 148.385 142.993 150.887 140.529 153.398C138.168 155.795 135.781 158.165 133.397 160.539C132.073 161.888 132.073 161.888 130.722 163.266C124.551 169.299 124.551 169.299 119.711 170.321C116.01 169.385 114.389 168.28 111.686 165.605C110.851 164.779 110.016 163.954 109.156 163.103C108.309 162.228 107.461 161.354 106.588 160.453C105.276 159.181 105.276 159.181 103.938 157.884C96.9673 150.838 96.9673 150.838 96.8928 146.515C97.5256 143.515 97.5256 143.515 98.5881 141.578C101.732 139.854 103.992 140.103 107.526 140.515C110.038 142.189 111.954 144.277 113.963 146.515C114.504 147.088 115.045 147.66 115.602 148.25C116.926 149.656 118.228 151.084 119.526 152.515C122.522 151.176 124.544 149.72 126.806 147.351C127.424 146.71 128.042 146.07 128.678 145.41C129.336 144.72 129.993 144.03 130.67 143.32C132.083 141.867 133.496 140.416 134.91 138.964C137.13 136.676 139.344 134.384 141.545 132.077C143.675 129.85 145.827 127.646 147.983 125.445C148.634 124.751 149.285 124.058 149.956 123.343C154.046 119.208 156.423 117.54 162.526 118.515Z" fill="#4B2E78"/>
<path d="M110.43 380.095C111.595 380.079 112.759 380.063 113.959 380.047C115.833 380.047 115.833 380.047 117.744 380.046C119.68 380.035 119.68 380.035 121.655 380.023C124.382 380.01 127.109 380.008 129.836 380.014C133.323 380.02 136.809 379.989 140.296 379.949C143.633 379.917 146.97 379.921 150.307 379.921C152.18 379.897 152.18 379.897 154.092 379.872C163.72 379.949 163.72 379.949 166.856 382.853C168.526 385.515 168.526 385.515 168.463 388.703C167.526 391.515 167.526 391.515 165.526 393.515C162.914 393.776 162.914 393.776 159.563 393.79C158.312 393.799 157.06 393.809 155.771 393.819C154.399 393.818 153.027 393.817 151.655 393.816C150.252 393.82 148.85 393.824 147.447 393.829C144.506 393.836 141.565 393.836 138.623 393.831C134.852 393.825 131.082 393.842 127.311 393.865C124.414 393.88 121.517 393.881 118.62 393.878C117.23 393.878 115.839 393.883 114.449 393.893C112.505 393.906 110.561 393.897 108.618 393.887C107.511 393.888 106.405 393.889 105.265 393.889C102.526 393.515 102.526 393.515 100.676 392.21C98.694 389.289 99.0411 386.907 99.5257 383.515C103.13 380.694 105.918 380.132 110.43 380.095Z" fill="#4B2E78"/>
<path d="M123.588 23.1519C124.77 23.1512 124.77 23.1512 125.975 23.1504C127.639 23.1527 129.304 23.1625 130.968 23.179C133.516 23.2026 136.063 23.1996 138.612 23.1929C140.229 23.1985 141.846 23.2056 143.463 23.2144C144.226 23.2135 144.988 23.2126 145.774 23.2117C149.554 23.2623 151.304 23.3674 154.526 25.5152C155.526 28.3277 155.526 28.3277 155.526 31.5152C152.838 35.0684 151.34 36.377 146.9 37.1304C145.514 37.1498 144.127 37.1412 142.74 37.1089C142.002 37.109 141.264 37.109 140.504 37.1091C138.95 37.1037 137.396 37.0862 135.842 37.0572C133.467 37.0153 131.094 37.0161 128.719 37.023C127.205 37.0125 125.692 36.9996 124.178 36.9839C123.471 36.9837 122.763 36.9835 122.034 36.9833C118.978 36.9101 116.789 36.6563 114.075 35.2047C112.526 33.5152 112.526 33.5152 112.088 30.0152C112.526 26.5152 112.526 26.5152 113.549 24.8192C116.671 22.7594 119.972 23.1082 123.588 23.1519Z" fill="#4B2E78"/>
<path d="M48.5257 23.0776C49.7554 23.0669 49.7554 23.0669 51.01 23.0561C57.0028 23.1197 57.0028 23.1197 59.2561 24.8234C61.3882 27.6644 60.9514 30.1091 60.5257 33.5151C58.0857 36.1751 56.6179 36.5056 52.9944 36.8783C51.0299 36.8532 51.0299 36.8532 49.0257 36.8276C47.716 36.8237 46.4063 36.8198 45.0569 36.8158C40.0238 36.3871 40.0238 36.3871 37.5257 34.5151C36.5597 31.0374 36.0241 28.6965 37.4593 25.3158C40.7793 22.4225 44.275 22.974 48.5257 23.0776Z" fill="#4B2E78"/>
</svg>
